<svg xmlns="http://www.w3.org/2000/svg" viewBox="0 0 500 500"><g id="freepik--Floor--inject-1--inject-2"><path id="freepik--floor--inject-1--inject-2" d="M111.54,435.6c73.23,34,192,34,265.21,0s73.24-89.21,0-123.25-192-34-265.21,0S38.3,401.57,111.54,435.6Z" style="fill:#f5f5f5"></path></g><g id="freepik--Shadows--inject-1--inject-2"><path d="M278.83,385.85c-19.53,9.3-51.19,9.3-70.71,0s-19.53-24.4,0-33.71,51.18-9.3,70.71,0S298.36,376.54,278.83,385.85Z" style="fill:#e6e6e6"></path><ellipse cx="334.54" cy="376.94" rx="47.29" ry="22.54" style="fill:#e6e6e6"></ellipse><path d="M186.15,393.27c-18.87,9-49.46,9-68.34,0s-18.87-23.57,0-32.57,49.47-9,68.34,0S205,384.28,186.15,393.27Z" style="fill:#e6e6e6"></path></g><g id="freepik--Plants--inject-1--inject-2"><g id="freepik--plants--inject-1--inject-2"><path d="M120.3,333.6C119.53,324,111,304.68,100,293s-27.35-19.5-38.16-14.81C51.8,282.59,54,296.09,67.3,304.08s33.09,17.79,39.87,32.91l13.13,18.16Z" style="fill:#9D4DDB"></path><path d="M120.3,333.6C119.53,324,111,304.68,100,293s-27.35-19.5-38.16-14.81C51.8,282.59,54,296.09,67.3,304.08s33.09,17.79,39.87,32.91l13.13,18.16Z" style="opacity:0.1"></path><path d="M122.06,346.67a.69.69,0,0,1-.67-.51c-9.06-32.24-37.7-56.74-54-61.34a.71.71,0,0,1,.38-1.36c16.64,4.7,45.8,29.59,55,62.32a.71.71,0,0,1-.68.89Z" style="fill:#fff"></path><path d="M118.86,368c-2-5.27-9.27-13.64-20.52-20.14-12.44-7.18-27.66-9.72-31.61-15.78-4.74-7.27,1.09-15,13.32-14.44S114.9,333,120.3,357.6Z" style="fill:#9D4DDB"></path><path d="M120.75,362.18a.71.71,0,0,1-.64-.41c-12.3-27.26-34.5-35.38-44.52-35.88a.7.7,0,1,1,.07-1.4c11.08.54,33.18,8.88,45.73,36.7a.7.7,0,0,1-.35.93A.72.72,0,0,1,120.75,362.18Z" style="fill:#fff"></path><path d="M368.24,334.87c.67-8.33,4.48-22,14.17-35,10.36-13.94,23-22.66,32.38-18.58,8.74,3.8,5.43,15.87-9.62,27.77-10.55,8.35-21.5,19.22-27.39,32.34l-9.54,16.7Z" style="fill:#9D4DDB"></path><g style="opacity:0.1"><path d="M368.24,334.87c.67-8.33,4.48-22,14.17-35,10.36-13.94,23-22.66,32.38-18.58,8.74,3.8,5.43,15.87-9.62,27.77-10.55,8.35-21.5,19.22-27.39,32.34l-9.54,16.7Z"></path></g><path d="M369.08,341.22a.6.6,0,0,0,.56-.39c8.39-23.09,25.85-46.45,40.62-54.35a.58.58,0,0,0,.24-.8.59.59,0,0,0-.8-.24c-15,8-32.7,31.65-41.17,55a.59.59,0,0,0,.35.76Z" style="fill:#fff"></path><path d="M369.08,363.33a35.21,35.21,0,0,0,16.71,7.16c10.53,1.67,15.18-3.37,15.18-3.37s-4.15-9.87-10.13-12.64c0,0,10.14,2.06,18.27,7.49,0,0,6.43.1,9-9.71,0,0-3.81-5.91-16.59-9.1,0,0,7.78-2,19,.91.84.33,4.42-12.36,5.51-18.21s-1.27-5.79-5.83-7-20.1-2-23,.53-4.31,11.09-4.31,11.09-2.73-4.86-2.08-9.19a16.25,16.25,0,0,0-9.7.23c-5.13,1.79-4.8,4.28-4.8,8a39.54,39.54,0,0,0,1.53,11.11s-3.54-3.06-3.66-14.35c0,0-6.93,5.93-9.71,11S362.4,355.73,369.08,363.33Z" style="fill:#9D4DDB"></path><path d="M369.08,363.93a.62.62,0,0,0,.54-.34c8.49-17.65,40.08-38.16,51.39-40.36a.6.6,0,0,0,.47-.7.59.59,0,0,0-.69-.46c-11.51,2.23-43.61,23.07-52.24,41a.59.59,0,0,0,.28.79A.57.57,0,0,0,369.08,363.93Z" style="fill:#fff"></path></g></g><g id="freepik--character-2--inject-1--inject-2"><g id="freepik--character-3--inject-1--inject-2"><polygon points="222.66 166.15 212.65 200.21 223.59 205.84 232.12 177.44 222.66 166.15" style="fill:#ffa8a7"></polygon><path d="M233.82,152.74c-5.31.57-9.95,5.35-12.08,12.84s-5,19.14-5,19.14,5.82,6.37,13.72,4.44Z" style="fill:#e6e6e6"></path><path d="M220.17,350.17l0-1.44c-.59,1.68-3.34,8.89-7.38,12.46-3.22,2.84-7.59,6.11-8.74,9.32s5.94,4.57,8.91,4.09c3.45-.55,7.93-2.43,10.4-5.37,1.74-2.07,2.86-4.53,4.11-6.16s4.07-3.42,4.76-5.31c.38-1,0-3.34-.49-5.28s-.91-3.75-1.52-3.59c0,.22,0,1.09,0,1.09-.74.8-2.77,1.57-5.05,1.62C223.7,351.64,220.14,351.29,220.17,350.17Z" style="fill:#263238"></path><path d="M209.9,363.69c1-.86,2-1.7,2.91-2.51,2.82-2.49,5-6.77,6.28-9.69a13.86,13.86,0,0,0,1.14-5.27l.09-5.73,10.54-.49-.64,10h0v.24l-.06,0c-.51,2.08-5.21,7.56-7.89,11.14-1.79,2.4-5.18,5.43-9.17,5.9C209.31,367.74,207.4,366.52,209.9,363.69Z" style="fill:#ffa8a7"></path><path d="M271.57,352l-.38-1.38c-.1,1.77-.7,9.47-3.57,14-2.29,3.63-5.56,8-5.77,11.4s7,2.71,9.71,1.42c3.16-1.51,6.93-4.58,8.47-8.09,1.08-2.47,1.47-5.15,2.2-7.06s2.95-4.43,3.08-6.44c.07-1.11-1-3.2-2-4.93s-1.93-3.34-2.47-3c.05.21.29,1.06.29,1.06-.49,1-2.22,2.28-4.39,3C275.38,352.42,271.86,353.09,271.57,352Z" style="fill:#263238"></path><path d="M265.53,367.87c.71-1.11,1.44-2.2,2.09-3.22,2-3.2,2.9-7.91,3.3-11.07a13.75,13.75,0,0,0-.4-5.38L269,342.68l9.68-2.68,2.49,9h0l.06.24,0,0c.09,2.14-2.87,8.72-4.44,12.91-1,2.81-3.43,6.67-7.14,8.25C266.11,371.92,263.93,371.29,265.53,367.87Z" style="fill:#ffa8a7"></path><path d="M266.15,205.23c5.58,7.16,6.59,14.56,5.37,35.49s-1.6,38.45-1.29,39.63,4.84,10.79,6.5,18.56c1.95,9.09,2.43,42.82,2.43,42.82a10.07,10.07,0,0,1-9.71,2.59s-16.16-54.32-17.73-59S240.22,231,240.22,231l1.51-28Z" style="fill:#37474f"></path><path d="M223.52,229.32c.85-9.67,2.92-26.42,2.92-26.42l24.72-1.45c4,6.24,2.26,16.62,1.17,26L238.19,282.8c.29,2.65,2.73,8.27,0,22.52-3,15.91-7.25,36.87-7.25,36.87s-5.32,2.45-10.65.21c0,0-2-50.41-.74-64.18C221,263.33,222.94,235.93,223.52,229.32Z" style="fill:#37474f"></path><path d="M244.55,252.79l-4-20.3a43.69,43.69,0,0,1-10.09-5.15,30.73,30.73,0,0,0,7.06,6.51Z" style="fill:#263238"></path><path d="M223.59,149.66H243.5a24.36,24.36,0,0,0,24.36-24.36h0a22.13,22.13,0,0,0-22.13-22.14h0a22.14,22.14,0,0,0-22.14,22.14Z" style="fill:#263238"></path><path d="M264.15,153.44c3.84.19,6.67.91,9.28,8.46s8.05,36.53,6.23,39.55l-12.14-5.12-3-15.91C257.61,174.53,258,155.56,264.15,153.44Z" style="fill:#ffa8a7"></path><path d="M228,187.19c-.61,5.65-2.88,26.51-2.88,26.51,18.63,9.94,41.74,3.36,45.28-.74-3.2-10.55-6.65-16.55-9.29-19.36l3.36-13.18s-8.32-11.9-.32-27l-9.88-.81-14.51-.42c-3.47.19-5.94.53-5.94.53-2.23,2.08-5.73,7.79-8,13.61C224.35,170.1,222.77,176.09,228,187.19Z" style="fill:#f5f5f5"></path><path d="M264.15,153.44c4.37-.25,7,.83,10.15,7.85S280,185.45,280,185.45s-2.67,5.43-15.87,3.89l-2-11.9S256.31,165.07,264.15,153.44Z" style="fill:#e6e6e6"></path><path d="M262.78,187.05c-.16.65-4.53,6.42-6.67,7.78s3.8,3.24,4.63,6.62c1.69,6.82-3.22,14.18-19.89,14.63-3.94.1-4.11.94-2.07,2.14,14.81,2.44,28.92-2.13,31.62-5.26-3.2-10.55-6.65-16.55-9.29-19.36Z" style="fill:#e6e6e6"></path><path d="M231.5,112.8c-2.34,1.38-5.23,7.26-4.95,19.59.25,10.45,3.63,13,5.33,13.78s5,.29,8.17-.24v6.27a5,5,0,0,0,2,3.31c2.59,1.63,5.67,1,7.4.39,3.81-1.37,4.57-3.25,4.57-3.25l-.07-14.42s1.87,1.83,5.05-1c2.63-2.29,3.52-6.16,1.47-8.24a4.57,4.57,0,0,0-7.28,1.45s-1.87.15-3.74-3.32c0,0,.06-9.44-2-10.67C240.73,112.59,236,112.8,231.5,112.8Z" style="fill:#ffa8a7"></path><path d="M238.22,129.1a1.31,1.31,0,1,0,1.38-1.3A1.35,1.35,0,0,0,238.22,129.1Z" style="fill:#263238"></path><g style="opacity:0.5;mix-blend-mode:multiply"><path d="M237.87,138.62l-3.05,1a1.57,1.57,0,0,0,2,1.09A1.68,1.68,0,0,0,237.87,138.62Z" style="fill:#f28f8f"></path></g><path d="M228.17,125l2.66-1.84a1.54,1.54,0,0,0-2.2-.46A1.71,1.71,0,0,0,228.17,125Z" style="fill:#263238"></path><path d="M240.05,124.49l3,1.16a1.54,1.54,0,0,0-.87-2.08A1.7,1.7,0,0,0,240.05,124.49Z" style="fill:#263238"></path><path d="M227.58,128.82a1.32,1.32,0,1,0,1.39-1.3A1.34,1.34,0,0,0,227.58,128.82Z" style="fill:#263238"></path><g style="opacity:0.5;mix-blend-mode:multiply"><polygon points="234.26 128.06 234.05 135.97 229.89 134.69 234.26 128.06" style="fill:#f28f8f"></polygon></g><g style="opacity:0.5;mix-blend-mode:multiply"><path d="M240.05,145.93c3.36-.44,10.28-2.43,11.35-5.16a7.09,7.09,0,0,1-2.42,3.48c-2.07,1.77-8.93,3.77-8.93,3.77Z" style="fill:#f28f8f"></path></g><path d="M248.93,104.34l.51-5.8a2.82,2.82,0,0,0-3.2,2.54A3,3,0,0,0,248.93,104.34Z" style="fill:#263238"></path><path d="M249.24,104.93l4.7-3.44a2.83,2.83,0,0,0-4-.74A3.08,3.08,0,0,0,249.24,104.93Z" style="fill:#263238"></path><path d="M253.18,130.48V136h0a3.73,3.73,0,0,1-3.74-3.74v-5.07Z" style="fill:#263238"></path><path d="M238.22,104.47h0a18.58,18.58,0,0,0-18.59,18.58v2.41h9.1a8.46,8.46,0,0,0,8.38-7.32h0l.34,7.32h0a6.72,6.72,0,0,0,6.7-6.14l.11-1.2h0a8,8,0,0,0,7.94,7.34H253l.93-13.13Z" style="fill:#263238"></path><path d="M256.09,128H245.7a4.37,4.37,0,0,0-4.27-3.46h-.67a4.38,4.38,0,0,0-4,2.7,3.74,3.74,0,0,0-2.54-1.11,3.24,3.24,0,0,0-2.25.67,4.34,4.34,0,0,0-3.8-2.26h-.67a4.36,4.36,0,1,0,0,8.72h.67a4.36,4.36,0,0,0,4.36-4.36,4.17,4.17,0,0,0-.25-1.38,2.4,2.4,0,0,1,1.9-.65,2.9,2.9,0,0,1,2.31,1.17l0,0a4.24,4.24,0,0,0-.09.88,4.37,4.37,0,0,0,4.36,4.36h.67a4.36,4.36,0,0,0,4.36-4.36c0-.06,0-.11,0-.16h8.84A5,5,0,0,1,256.09,128Zm-27.95,4.52h-.67a3.62,3.62,0,1,1,0-7.24h.67a3.62,3.62,0,1,1,0,7.24Zm13.29,0h-.67a3.62,3.62,0,0,1,0-7.24h.67a3.62,3.62,0,1,1,0,7.24Z" style="fill:#455a64"></path><path d="M279.66,201.45c-2.71,3.16-27.33,26-27.33,26l.85-13.79,14.34-17.32Z" style="fill:#ffa8a7"></path><path d="M232.1,238l8.34-5.92c8-5.65,17.47-14.53,17.47-24.74a15.26,15.26,0,0,0-13-14.67c-6.58-.88-12,5.6-12.84,11.84-.82-6.46-6.26-14.39-12.84-15.26a11.08,11.08,0,0,0-12.95,11.22c0,10.23,9.48,21.62,17.42,29.38Z" style="fill:#9D4DDB"></path><path d="M254.79,217.68c-3.35,2-9.07,2.07-12.92,2.24s-8.61,6.06-5.48,8.44a13.44,13.44,0,0,0,15.94-.92Z" style="fill:#ffa8a7"></path><path d="M206.72,204.21c-.92.74-1.19,3.15-.63,5.71s2.73,6.55,5.81,7.76c1.41.56,7.54.74,10.49-2.43,3.12-3.36,2.87-9.11-1.62-8.09a48.34,48.34,0,0,1-13,.66A26.1,26.1,0,0,1,206.72,204.21Z" style="fill:#ffa8a7"></path></g></g><g id="freepik--character-3--inject-1--inject-2"><g id="freepik--character-2--inject-1--inject-2"><rect x="359.48" y="358.52" width="9.86" height="14.35" style="fill:#ffa8a7"></rect><path d="M359.48,368V366.6c-.94.41-3.14,8.77-7.05,12.33-3.1,2.84-7.34,6.11-8.42,9.27s5.9,5.11,8.81,4.59c3.37-.6,9.22-3,10.69-5.17s2.15-5.46,3.35-7.07,3.94-3.42,4.58-5.28c.36-1-.06-3.28-.56-5.18-.46-1.74-.95-3.66-1.55-3.49v1.07c-.71.79-2.69,1.58-4.92,1.67C363,369.39,359.47,369.11,359.48,368Z" style="fill:#263238"></path><polygon points="325.87 361.89 316.02 362.23 316.86 347.71 326.71 347.38 325.87 361.89" style="fill:#ffa8a7"></polygon><path d="M316.2,359.19c-.52,0-.91.74-2,2a21.33,21.33,0,0,1-5.79,4.17c-3.69,1.85-10.87,4.69-14.11,6.15-2,.92-1.94,3.37.16,4.76s7.16,2.4,13.24,1c3.31-.74,7.62-3.8,10.35-3.63s7.83.12,9.84-1.27,1.21-4.35.64-6.9c-.62-2.78-1.51-7.13-2.43-6.94l-.06,1.16c-1.19,1.8-7.28,2.16-9.88.84Z" style="fill:#263238"></path><path d="M327.43,174.73c-4.45,4.27-30.67,18-32.11,17.75-2.16-.3-10-8-16.7-15.12-1.05-5.42-2.59-12.25-4.31-16.07a18.3,18.3,0,0,0-3.87-6l.45-1.84,25.38,24s27.85-21,32-22.2S331.88,170.46,327.43,174.73Z" style="fill:#f28f8f"></path><path d="M261,150.29c-3.4.85-6,3.15-5.43,6.83.37,2.42,4.37,4.19,6.52,2.35,1.73-1.49,6.91-5.06,9.28-3.23a5.84,5.84,0,0,1,.53,3.51c-.16,1.92.82,3.29,1.4,3.2s1.48-3.15,1.57-4.35c.13-1.86-.93-7.32-9.24-8.42l0,0A12.59,12.59,0,0,0,261,150.29Z" style="fill:#ffa8a7"></path><path d="M389.08,211.53c-.22-3-5.29-16.58-7.81-22.19l-12.77,6,4.89,11.2,13.23,10.22C390.05,216.22,389.18,212.79,389.08,211.53Z" style="fill:#ffa8a7"></path><path d="M364.08,219.67c0,9.41,1.22,70.29,1.22,70.29.23,2.7,3.68,11.61,4,24.2.4,14.14.82,46,.82,46s-4.62,4.58-11.14,0c0,0-10.75-46.54-14.06-64.22-1.54-12.22-5.39-47.27-5.39-47.27l-8,39.9a90.58,90.58,0,0,1,1,14.17c0,6.5-5.67,48.66-5.67,48.66s-5.57,3.38-10.91.18c0,0-3.21-57.07-3.3-63-.11-7.26,5.27-68.92,5.27-68.92Z" style="fill:#37474f"></path><path d="M339.56,248.69l-1.15-8.52s-7.43-3.41-10-5.83c0,0,4.67,6.17,7.61,7.89l-3.6,42.21Z" style="fill:#263238"></path><path d="M332,154C326.87,154,320,158.52,314.2,163s-10.62,8.17-10.62,8.17c1,5.42,4.45,10.38,8.17,14.44l16.51-8.95S335.46,162,332,154Z" style="fill:#e6e6e6"></path><path d="M349.24,154.49c8.84,2.13,20.05,5.7,24,13.84s10,21.34,10,21.34a35.78,35.78,0,0,1-14.63,8.65l-4.49-7.82v29.17c-6.91,7.51-31,11-46.09,0v-48c0-7.68,4.26-16.9,16-17.59Z" style="fill:#f5f5f5"></path><path d="M364.08,190.5s-4.43-7.68-5.39-9.53l5.39,18.55Z" style="fill:#e6e6e6"></path><path d="M352.56,115.2a5.25,5.25,0,0,1,4.35,1.53c1.86,1.91,1.48,5.44,0,13.56l-5.76.66Z" style="fill:#263238"></path><path d="M318.93,112.85a8.91,8.91,0,0,1-3.61-.73c-1.77-1-2.23,1-1.26,2.75a8.25,8.25,0,0,0,6.69,4.45c.05-.25,1.66-4.5,1.66-4.5Z" style="fill:#263238"></path><path d="M349.86,131c.85.51,2.07-1.14,3.13-2.24s4.5-2.62,6.22,1-2.22,8.6-4.56,10.22c-2.77,1.93-4.79.42-4.79.42l-.62,14.12s-3.06,7.49-11.35,8.62S331.3,157.39,334,154v-5.13s-4.28.84-6.31.32a9.33,9.33,0,0,1-6.14-6.32,50,50,0,0,1-1.39-23.22c2.1-12.81,16.55-13,24.65-7.93S349.86,131,349.86,131Z" style="fill:#ffa8a7"></path><path d="M349.86,132.4c.43,0,2.06-2.71,3.13-3.68,1.48-1.35-.43-13.52-.43-13.52s1.5-4.61-1.42-7.67-8.58-2.55-12.72-2.7a37.06,37.06,0,0,1-14.78-3c-5.88-2.56-6.32-2.86-7-.28s-1,8.49,2.5,12.45l2.91,1.07s1.58,1.4,7.06,2.07,14-.13,15.18-.29c1.59-.22,1.93,1.32,2.78,5.53C347.78,126.11,348.41,132.37,349.86,132.4Z" style="fill:#263238"></path><path d="M352.55,116.15l5.18-2.78a2.86,2.86,0,0,0-3.92-1.3A3.1,3.1,0,0,0,352.55,116.15Z" style="fill:#263238"></path><path d="M334,148.91s7.68-1.55,10.36-3a8.77,8.77,0,0,0,3.71-3.67,12.08,12.08,0,0,1-2.1,4.33c-2,2.51-12,4.36-12,4.36Z" style="fill:#f28f8f"></path><path d="M335.89,129a1.56,1.56,0,0,0,1.53,1.59,1.6,1.6,0,1,0-1.53-1.59Z" style="fill:#263238"></path><path d="M337.8,122.67l3.29,1.81a2,2,0,0,0-.77-2.62A1.83,1.83,0,0,0,337.8,122.67Z" style="fill:#263238"></path><path d="M336,139.47l-3.51,1.32a1.84,1.84,0,0,0,2.38,1.16A2,2,0,0,0,336,139.47Z" style="fill:#f28f8f"></path><path d="M321.63,124.61l3-2.32a1.83,1.83,0,0,0-2.61-.4A2,2,0,0,0,321.63,124.61Z" style="fill:#263238"></path><path d="M323.09,128.6a1.54,1.54,0,1,0,1.54-1.61A1.59,1.59,0,0,0,323.09,128.6Z" style="fill:#263238"></path><polygon points="330.93 127.14 330.42 136.39 325.59 134.75 330.93 127.14" style="fill:#f28f8f"></polygon><path d="M313.47,227.05l6.61-3.52c6.31-3.36,13.84-9.06,13.84-17.15,0-5.67-4.59-11.68-10.26-13.43-5.21-1.61-9.51,2.76-10.17,7.59-.65-5.24-4.95-12.27-10.17-13.88-5.66-1.76-10.25,1.42-10.25,7.08,0,8.1,7.5,18.45,13.8,25.7Z" style="fill:#9D4DDB"></path><path d="M386.62,216.74l-13.23-10.22s-26.67,4.34-29.8,4.58-5.89-2.12-7.08-5.19-3.06-2.74-3.06-2.74a11.81,11.81,0,0,1,.3,5.29c-1.08,1.16-7.25,2.32-11.41.91s-10.19.64-6.46,6.3,11,6.33,16,6.33a52.34,52.34,0,0,0,6.3-.42c1.63-.21,3.26-.38,4.9-.49C353.44,220.35,381.93,218.22,386.62,216.74Z" style="fill:#ffa8a7"></path></g></g><g id="freepik--character-1--inject-1--inject-2"><g id="freepik--character-1--inject-1--inject-2"><g id="freepik--Character2--inject-1--inject-2"><path d="M150.14,153.82c9.1-1.66,9.5-.41,38.14,15.61,0,0,33.73-13.68,37.73-16s9.73-3.85,14-1.24a11,11,0,0,0-3.05.52c-.49.24-2.13,1.08-1.92,1.83.08.32.47.42.8.44a8.6,8.6,0,0,0,2.09-.1c.8-.14,1.75-.34,2.3.25a1.45,1.45,0,0,1-.08,1.82,4.27,4.27,0,0,1-1.62,1.11l-3,1.39a10.72,10.72,0,0,0-2.07,1.15c-.59.44-1.09,1-1.7,1.43-1.9,1.31-4.13.63-6.12,1.48-.34.14-.68.32-1,.47-1.47.7-2.87,1.52-4.27,2.35-4.08,2.42-8.07,5-12.07,7.54s-7.79,5-11.81,7.27a19.38,19.38,0,0,1-4.71,2.24c-5,1.21-33.73-11.28-33.73-11.28Z" style="fill:#9e6767"></path><path d="M138.88,105.06h6.82A18.94,18.94,0,0,1,164.64,124v3.16A18.83,18.83,0,0,1,145.81,146h-7a18.83,18.83,0,0,1-18.83-18.83V124A18.94,18.94,0,0,1,138.88,105.06Z" style="fill:#9D4DDB"></path><path d="M128.93,369.56v-1.44c.57,1.69,3.2,8.94,7.18,12.58,3.17,2.89,7.5,6.23,8.6,9.45s-6,4.48-9,4c-3.44-.61-7.89-2.57-10.32-5.54-1.7-2.1-2.78-4.58-4-6.22s-4-3.49-4.68-5.39c-.36-1,.07-3.34.58-5.28.46-1.77,1-3.73,1.57-3.56v1.09c.73.81,2.75,1.62,5,1.7C125.38,371,128.94,370.68,128.93,369.56Z" style="fill:#263238"></path><path d="M139,383.24c-1-.88-2-1.73-2.87-2.55-2.78-2.54-4.9-6.85-6.12-9.79a13.73,13.73,0,0,1-1.06-5.29v-5.73H118.88v9.33h0v.24l.05,0c.49,2.09,5.1,7.64,7.72,11.26,1.75,2.43,5.09,5.52,9.08,6.05C139.51,387.3,141.44,386.11,139,383.24Z" style="fill:#9e6767"></path><path d="M168.13,359.65v-1.44c.56,1.69,3.19,9,7.18,12.58,3.17,2.89,7.49,6.23,8.59,9.46s-6,4.47-9,3.95c-3.45-.61-7.9-2.56-10.32-5.54-1.7-2.09-2.79-4.57-4-6.22s-4-3.48-4.67-5.39c-.37-1,.06-3.34.57-5.27.47-1.78,1-3.73,1.58-3.57v1.1c.73.81,2.75,1.61,5,1.7C164.57,361.06,168.14,360.77,168.13,359.65Z" style="fill:#263238"></path><path d="M178.18,373.34c-1-.88-2-1.74-2.87-2.56-2.79-2.54-4.91-6.85-6.13-9.79a13.9,13.9,0,0,1-1.05-5.29V350h-10v9.32h0v.25l0,0c.48,2.09,5.09,7.65,7.71,11.27,1.76,2.43,5.1,5.52,9.09,6.05C178.7,377.39,180.64,376.2,178.18,373.34Z" style="fill:#9e6767"></path><path d="M120.88,213.39c-7.79,17,.28,76.95.28,76.95-.23,2.76-3.39,8.2-4.56,20.35-1.39,14.36,2.18,50.41,2.18,50.41a10.86,10.86,0,0,0,10.15.4s9.58-54.3,11.38-68.57c1.57-12.46,4.59-39.86,4.59-39.86l8.57,39.79a73.76,73.76,0,0,0-2.71,12.3c-.82,8.39,7.32,47.49,7.32,47.49s3.47,1.28,10,.31c0,0,2.88-51.89,3.63-62,1.28-17-3.23-70-6.35-80Z" style="fill:#37474f"></path><path d="M144.9,253.07l2.53-15.8s10.7-2.22,15.55-6.78c0,0-5.09,6.33-12.65,8.41l-2.84,12.16,5,36.85Z" style="fill:#263238"></path><path d="M134.62,154.28h0c-10,.68-10.68,5.51-13.18,10.78a17.06,17.06,0,0,0-.48,12.87l7,20.14s-3.25,7.88-7,15.32c17.47,9.75,39.28,4.62,44.53-2.49.22-1.51-1.13-13.31-2-21,3.08-7.72,3.89-12.61,2.59-17.71-2.41-9.47-11.76-18.69-15.9-18.36Z" style="fill:#f5f5f5"></path><path d="M128.61,211.83s2.06-8.19,2.8-10a3.43,3.43,0,0,1,3.53-2.35h0a10.19,10.19,0,0,1-4.36-6.5l-2.12-10.65s3.94-12.51,3.54-16.79l-10,.58-1.29.9a17.5,17.5,0,0,0,.28,10.87l7,20.14s-3.25,7.88-7,15.32c12.87,7.18,28.1,6.29,37.32,2.47Z" style="fill:#e6e6e6"></path><path d="M108.18,206c.06-.79,3.51-22,6.25-36.28,1.84-9.64,5.68-13.17,13.2-14.33l2.67-.42c3.57,11.73,1.11,17-3.6,25.07l-4.44,21.42-10.75,10.87C107.81,211.59,108.1,207.11,108.18,206Z" style="fill:#9e6767"></path><path d="M157.3,114.1c2.36,1.4,5.28,7.33,5,19.78-.25,10.55-3.67,13.16-5.38,13.91s-5,.29-8.25-.24v6.33s4.45,5.17,4.17,8.07-6.43,3.59-10.59.75a26.89,26.89,0,0,1-6.83-7.15v-15.3s-2.18,2.9-5.73.54-3.69-8.21-1.63-10.31,6.53-1.43,7.36,1.47c0,0,5.13.19,12-3.57A19.23,19.23,0,0,0,157.3,114.1Z" style="fill:#9e6767"></path><path d="M150.51,131.23a1.33,1.33,0,1,1-1.4-1.31A1.35,1.35,0,0,1,150.51,131.23Z" style="fill:#263238"></path><path d="M150.86,140.18l3.08,1a1.58,1.58,0,0,1-2,1.1A1.69,1.69,0,0,1,150.86,140.18Z" style="fill:#874c4c"></path><path d="M161.39,127.16l-2.69-1.86a1.57,1.57,0,0,1,2.23-.46A1.72,1.72,0,0,1,161.39,127.16Z" style="fill:#263238"></path><path d="M160.77,130.27a1.33,1.33,0,1,1-1.4-1.31A1.35,1.35,0,0,1,160.77,130.27Z" style="fill:#263238"></path><polygon points="154.51 129.51 154.72 137.5 158.92 136.2 154.51 129.51" style="fill:#874c4c"></polygon><path d="M148.66,147.55c-3.39-.45-10.38-2.45-11.46-5.21a7.15,7.15,0,0,0,2.44,3.52c2.09,1.79,9,3.8,9,3.8Z" style="fill:#874c4c"></path><path d="M181.48,224.66l-6.36-3.39c-6.07-3.23-13.31-8.72-13.31-16.5,0-5.45,4.41-11.24,9.86-12.92,5-1.55,9.16,2.65,9.79,7.3.63-5,4.77-11.81,9.78-13.36,5.45-1.68,9.87,1.37,9.87,6.82,0,7.79-7.22,17.74-13.28,24.72Z" style="fill:#9D4DDB"></path><path d="M111.51,212.32l10.75-10.87s27.13,6,30.19,6.29,5.49-2.52,7.64-4.94a2.77,2.77,0,0,1,2.14-1,7.13,7.13,0,0,0-.27,3c.46,1.28,7.21,2.65,11.29,1.27s10,.62,6.31,6.17-10.75,6.18-15.69,6.19a52.07,52.07,0,0,1-6.17-.41c-1.59-.21-3.18-.37-4.79-.49C142.82,216.78,116.1,213.76,111.51,212.32Z" style="fill:#9e6767"></path><path d="M122.72,107.45c4.36,1.83,3.38,5.57,1.56,9.92s-3.8,7.69-8.16,5.86a8.55,8.55,0,0,1,6.6-15.78Z" style="fill:#9D4DDB"></path><path d="M126.56,111.35l1.53-7.28a3.61,3.61,0,0,0-4.45,2.74A3.91,3.91,0,0,0,126.56,111.35Z" style="fill:#9D4DDB"></path></g></g></g></svg>