<svg xmlns="http://www.w3.org/2000/svg" viewBox="0 0 500 500"><g id="freepik--Floor--inject-2"><ellipse id="freepik--Grass--inject-2" cx="250.63" cy="337.94" rx="244.17" ry="148.13" style="fill:#FF725E"></ellipse></g><g id="freepik--Clouds--inject-2"><g id="freepik--clouds--inject-2"><path d="M85.94,33.74l-5.75,3.32a6.61,6.61,0,0,0,0-.76V34.64c0-3-2.08-4.16-4.64-2.68a9.07,9.07,0,0,0-2.77,2.66c-.42-3.73-3.34-5.11-6.89-3.06a15.35,15.35,0,0,0-6.94,12v2.48A6.52,6.52,0,0,0,59.59,49l-4.77,2.75a5.68,5.68,0,0,0-2.58,4.46c0,1.64,1.15,2.31,2.58,1.49l31.12-18a5.69,5.69,0,0,0,2.57-4.46C88.51,33.59,87.36,32.92,85.94,33.74Z" style="fill:#ebebeb"></path><path d="M109.08,46.26l-4.33,2.5a5.46,5.46,0,0,0,0-.57V46.93c0-2.23-1.57-3.14-3.51-2a6.86,6.86,0,0,0-2.09,2c-.31-2.81-2.52-3.86-5.2-2.31a11.59,11.59,0,0,0-5.24,9.08v1.88a4.84,4.84,0,0,0,.45,2.17l-3.6,2.08a4.29,4.29,0,0,0-1.95,3.37c0,1.24.87,1.74,1.95,1.12l23.48-13.56a4.29,4.29,0,0,0,2-3.37C111,46.14,110.16,45.64,109.08,46.26Z" style="fill:#ebebeb"></path><path d="M401.39,43.22l4.34,2.5a3.64,3.64,0,0,1,0-.57V43.89c0-2.23,1.57-3.14,3.5-2a6.64,6.64,0,0,1,2.09,2c.32-2.81,2.52-3.86,5.2-2.31a11.57,11.57,0,0,1,5.24,9.08v1.88a5,5,0,0,1-.44,2.17l3.6,2.08a4.31,4.31,0,0,1,1.94,3.37c0,1.24-.87,1.74-1.94,1.12L401.39,47.71a4.31,4.31,0,0,1-1.94-3.37C399.45,43.1,400.32,42.6,401.39,43.22Z" style="fill:#ebebeb"></path></g></g><g id="freepik--Shadows--inject-2"><ellipse id="freepik--Shadow--inject-2" cx="129.98" cy="303.62" rx="34.69" ry="20.03" style="opacity:0.13"></ellipse><path id="freepik--shadow--inject-2" d="M348.14,275.24c-16.52,9.54-16.52,25,0,34.54s43.31,9.54,59.83,0,16.52-25,0-34.54S364.66,265.7,348.14,275.24Z" style="opacity:0.13"></path><path id="freepik--shadow--inject-2" d="M199.9,236.54c-16.52,9.54-16.52,25,0,34.54s43.31,9.54,59.83,0,16.52-25,0-34.54S216.42,227,199.9,236.54Z" style="opacity:0.13"></path><path id="freepik--shadow--inject-2" d="M134,234.48c-7.53,4.35-7.53,11.39,0,15.74s19.72,4.34,27.25,0,7.52-11.39,0-15.74S141.55,230.14,134,234.48Z" style="opacity:0.13"></path><path id="freepik--shadow--inject-2" d="M285.42,345.58,124.61,438.42a6.57,6.57,0,0,1-5.92,0L69,409.75c-1.63-.94-1.63-2.47,0-3.42l160.81-92.84a6.5,6.5,0,0,1,5.92,0l49.66,28.67C287.05,343.1,287.05,344.63,285.42,345.58Z" style="opacity:0.13"></path><path id="freepik--shadow--inject-2" d="M329.35,406.28a18.69,18.69,0,0,1,9.41,3.83c2.7,2,4.69,5.35,4.21,8.7a9.6,9.6,0,0,1-4.37,6.32c-5.06,3.44-10.14,3.11-15.86,4.08-9.75,1.65-17.35,10.1-27.14,11.52-7.49,1.08-15-2.15-22.52-2.16-5.4,0-10.64,1.61-15.92,2.71s-11,1.65-15.94-.41c-2.95-1.21-5.8-4.07-5.06-7.17.53-2.19,2.64-3.57,4.57-4.73,9.4-5.64,18.92-11.33,29.43-14.43,6.07-1.79,13.14-2.52,18.28,1.17a14.46,14.46,0,0,0,3.29,2.18,8.23,8.23,0,0,0,4.81-.13C302,416.4,307,413.84,312,411.47s10.29-4.57,15.84-5.15A9.12,9.12,0,0,1,329.35,406.28Z" style="opacity:0.13"></path><path id="freepik--shadow--inject-2" d="M196.24,425.32c8.28,4.66,8.36,12.37.19,17.21s-21.52,5-29.8.32-8.36-12.37-.18-17.21S188,420.66,196.24,425.32Z" style="opacity:0.13"></path><path id="freepik--shadow--inject-2" d="M111.7,267.2a3.48,3.48,0,0,0-1.2-.12,2.44,2.44,0,0,0-1.35.44,2.48,2.48,0,0,0-.85,1.07,10.6,10.6,0,0,0-7.38-4.57,4.26,4.26,0,0,0-7.09-2.63A10.63,10.63,0,0,0,75.7,263a2.59,2.59,0,0,0-4.42-.58,2.61,2.61,0,0,0-.54,1.67,10.85,10.85,0,0,0-2.51-.3,10.61,10.61,0,0,0-8.44,4.18,2.54,2.54,0,0,0-.85-1.21,3,3,0,0,0-3-.24,3.22,3.22,0,0,0-1.71,1.92,3.45,3.45,0,0,0,.63,2.92,3.67,3.67,0,0,0,3.35,1,7.93,7.93,0,0,0,10.84,4.47,4.13,4.13,0,0,0,5.93,1,6,6,0,0,0,10,1.71,6.49,6.49,0,0,0,11.12-1.36,6,6,0,0,0,9.55-3.29,3.76,3.76,0,0,0,5.47-1.47,3.18,3.18,0,0,0,2.16-5.34A3.18,3.18,0,0,0,111.7,267.2Z" style="opacity:0.13"></path></g><g id="freepik--Tree--inject-2"><g id="freepik--tree--inject-2"><g id="freepik--tree--inject-2"><path d="M63.92,164h0L82.08,185.2l3-76.45h0l3,71.79,18.49-24h0L88.1,187.38v79.31a1.5,1.5,0,0,1-.88,1.23,4.7,4.7,0,0,1-4.26,0,1.5,1.5,0,0,1-.88-1.23V193.16Z" style="fill:#FF725E"></path><path d="M63.92,164h0L82.08,185.2l3-76.45h0l3,71.79,18.49-24h0L88.1,187.38v79.31a1.5,1.5,0,0,1-.88,1.23,4.7,4.7,0,0,1-4.26,0,1.5,1.5,0,0,1-.88-1.23V193.16Z" style="opacity:0.5"></path></g><g id="freepik--Leaves--inject-2"><g id="freepik--Leave--inject-2"><path d="M89.33,141.22a14.24,14.24,0,0,1,2.85-13.52c6-7,17.19-3.88,17.93-2.92s.55,6.21-2.21,9.79S98.72,144.14,89.33,141.22Z" style="fill:#FF725E"></path><path d="M110.12,124.78a22.47,22.47,0,0,0-20.78,16.44,14.22,14.22,0,0,1,2.84-13.52C98.14,120.73,109.37,123.82,110.12,124.78Z" style="opacity:0.1"></path></g><g id="freepik--leave--inject-2"><path d="M81.59,145.11A14.8,14.8,0,0,0,74.7,132c-7.66-4.83-15.25-2-16-.42s-.06,2.3,2,6,5.1,8.78,10.6,10.19C75.86,149,79.17,147.17,81.59,145.11Z" style="fill:#FF725E"></path><path d="M81.59,145.11A14.8,14.8,0,0,0,74.7,132c-7.66-4.83-15.25-2-16-.42C63.12,130.8,77.71,133.92,81.59,145.11Z" style="opacity:0.15"></path><path d="M81.59,145.11c-3.88-11.2-18.47-14.31-22.85-13.55.71-1.62,8.31-4.42,16,.4A14.81,14.81,0,0,1,81.59,145.11Z" style="fill:#FF725E"></path><path d="M81.59,145.11c-3.88-11.2-18.47-14.31-22.85-13.55.71-1.62,8.31-4.42,16,.4A14.81,14.81,0,0,1,81.59,145.11Z" style="opacity:0.1"></path></g><g id="freepik--leave--inject-2"><path d="M88.87,119.14A10.61,10.61,0,0,1,91,108.72c4.33-4.83,10.11-4.39,10.92-3.42s1,1.76.29,4.73-2.08,6.37-5.59,8.42A8.38,8.38,0,0,1,88.87,119.14Z" style="fill:#FF725E"></path><path d="M88.87,119.14A10.61,10.61,0,0,1,91,108.72c4.33-4.83,10.11-4.39,10.92-3.42C98.79,105.64,89.34,110.66,88.87,119.14Z" style="opacity:0.15"></path><path d="M88.87,119.14c.47-8.48,9.92-13.49,13.09-13.83-.81-1-6.59-1.42-10.92,3.41A10.61,10.61,0,0,0,88.87,119.14Z" style="fill:#FF725E"></path><path d="M88.87,119.14c.47-8.48,9.92-13.49,13.09-13.83-.81-1-6.59-1.42-10.92,3.41A10.61,10.61,0,0,0,88.87,119.14Z" style="opacity:0.1"></path></g><g id="freepik--leave--inject-2"><path d="M68.64,167.55a6.33,6.33,0,0,1-1.45-6.18c1.13-3.7,4.37-4.91,5-4.59s1,.7,1.35,2.48a7.43,7.43,0,0,1-.91,6A5,5,0,0,1,68.64,167.55Z" style="fill:#FF725E"></path><path d="M68.64,167.55a6.33,6.33,0,0,1-1.45-6.18c1.13-3.7,4.37-4.91,5-4.59C70.61,157.76,66.76,162.85,68.64,167.55Z" style="opacity:0.15"></path><path d="M68.64,167.55c-1.88-4.7,2-9.79,3.6-10.77-.68-.33-3.92.89-5,4.59A6.33,6.33,0,0,0,68.64,167.55Z" style="fill:#FF725E"></path><path d="M68.64,167.55c-1.88-4.7,2-9.79,3.6-10.77-.68-.33-3.92.89-5,4.59A6.33,6.33,0,0,0,68.64,167.55Z" style="opacity:0.1"></path></g><g id="freepik--leave--inject-2"><path d="M82.23,125.34s.75-6.52-3.42-10.55-9.92-5.07-11.29-4.1-1.5,7.77,2.54,11.84C75.06,127.57,81.18,126.76,82.23,125.34Z" style="fill:#FF725E"></path><path d="M82.23,125.33c-4.57-9.06-14.71-14.64-14.71-14.64,1.37-1,7,0,11.29,4.11C82.87,118.72,82.26,125,82.23,125.33Z" style="opacity:0.1"></path></g><g id="freepik--leave--inject-2"><path d="M85.36,106.06s3.18-2.9,2.86-6.68-2.72-6.79-3.82-6.9-4.09,3.2-3.84,7C80.86,104.07,84.23,106.32,85.36,106.06Z" style="fill:#FF725E"></path><path d="M85.37,106.06c1.64-6.45-1-13.58-1-13.58,1.1.11,3.49,3,3.82,6.9C88.54,103.07,85.52,105.92,85.37,106.06Z" style="opacity:0.1"></path></g><g id="freepik--leave--inject-2"><path d="M65.75,170.26s-2.34-3.62-6.12-3.92-7.15,1.56-7.44,2.62,2.48,4.56,6.22,4.94C63,174.37,65.81,171.42,65.75,170.26Z" style="fill:#FF725E"></path><path d="M65.74,170.26c-6.09-2.7-13.55-1.3-13.55-1.3.29-1.06,3.58-2.94,7.44-2.62C63.32,166.63,65.63,170.09,65.74,170.26Z" style="opacity:0.1"></path></g><g id="freepik--leave--inject-2"><path d="M62.85,162s.85-3.87-1.4-6.55-5.65-3.67-6.53-3.17-1.39,4.58.79,7.27C58.4,162.9,62.13,162.8,62.85,162Z" style="fill:#FF725E"></path><path d="M62.85,162c-2.19-5.73-7.93-9.71-7.93-9.71.88-.5,4.23.44,6.53,3.17S62.89,161.82,62.85,162Z" style="opacity:0.1"></path></g><g id="freepik--leave--inject-2"><path d="M102.25,159.46a6.34,6.34,0,0,0,1.92-6.05c-.83-3.78-4-5.24-4.67-5s-1,.62-1.54,2.37a7.34,7.34,0,0,0,.44,6A5,5,0,0,0,102.25,159.46Z" style="fill:#FF725E"></path><path d="M102.25,159.46a6.34,6.34,0,0,0,1.92-6.05c-.83-3.78-4-5.24-4.67-5C101,149.54,104.48,154.91,102.25,159.46Z" style="opacity:0.15"></path><path d="M102.25,159.46c2.23-4.55-1.21-9.92-2.76-11,.71-.27,3.85,1.19,4.68,5A6.34,6.34,0,0,1,102.25,159.46Z" style="fill:#FF725E"></path><path d="M102.25,159.46c2.23-4.55-1.21-9.92-2.76-11,.71-.27,3.85,1.19,4.68,5A6.34,6.34,0,0,1,102.25,159.46Z" style="opacity:0.1"></path></g><g id="freepik--leave--inject-2"><path d="M105,161.66s2.34-3.61,6.13-3.92,7.14,1.56,7.43,2.62-2.48,4.56-6.22,4.94C107.67,165.78,104.9,162.82,105,161.66Z" style="fill:#FF725E"></path><path d="M105,161.66c6.09-2.69,13.55-1.3,13.55-1.3-.29-1.06-3.58-2.94-7.44-2.62C107.39,158,105.08,161.49,105,161.66Z" style="opacity:0.1"></path></g><g id="freepik--leave--inject-2"><path d="M107.74,154.36s-.85-3.87,1.4-6.55,5.65-3.66,6.53-3.16,1.38,4.57-.79,7.26C112.19,155.25,108.46,155.15,107.74,154.36Z" style="fill:#FF725E"></path><path d="M107.74,154.36c2.19-5.74,7.93-9.72,7.93-9.72-.88-.49-4.24.44-6.53,3.17S107.7,154.17,107.74,154.36Z" style="opacity:0.1"></path></g></g><g id="freepik--Soil--inject-2"><path d="M111.7,264.3a3.74,3.74,0,0,0-1.2-.12,2.45,2.45,0,0,0-1.35.45,2.39,2.39,0,0,0-.85,1.06,10.6,10.6,0,0,0-7.38-4.57,4.26,4.26,0,0,0-7.09-2.63,10.63,10.63,0,0,0-18.13,1.58,2.59,2.59,0,0,0-4.42-.58,2.61,2.61,0,0,0-.54,1.67,10.85,10.85,0,0,0-2.51-.3A10.61,10.61,0,0,0,59.79,265a2.59,2.59,0,0,0-.85-1.21,3.06,3.06,0,0,0-3-.24,3.27,3.27,0,0,0-1.71,1.93,3.44,3.44,0,0,0,.63,2.91,3.67,3.67,0,0,0,3.35,1,7.93,7.93,0,0,0,10.84,4.47,4.13,4.13,0,0,0,5.93,1,6,6,0,0,0,10,1.71,6.49,6.49,0,0,0,11.12-1.36,6,6,0,0,0,9.55-3.29,3.76,3.76,0,0,0,5.47-1.47,3.17,3.17,0,0,0,2.16-5.33A3.12,3.12,0,0,0,111.7,264.3Z" style="fill:#b16668"></path><path d="M76.73,265.64a2.81,2.81,0,0,0-3.65-.81,4.07,4.07,0,0,0-6.94,1.2,4.06,4.06,0,0,1,6.56-.14l.19-.15a2.29,2.29,0,0,1,.59-.33,2.82,2.82,0,0,1,3.36,1,2.77,2.77,0,0,1,.43.88A2.78,2.78,0,0,0,76.73,265.64Z" style="fill:#9a4a4d"></path><path d="M89.84,263a2.63,2.63,0,0,1,3.39-.76,3.78,3.78,0,0,1,6.44,1.12,3.77,3.77,0,0,0-5.72-.54,4.89,4.89,0,0,0-.37.41l-.17-.14a2.5,2.5,0,0,0-.55-.31,2.62,2.62,0,0,0-3.12.89,2.41,2.41,0,0,0-.4.82A2.59,2.59,0,0,1,89.84,263Z" style="fill:#9a4a4d"></path><path d="M81.4,270.54a2.61,2.61,0,0,1,3.39-.76,3.74,3.74,0,0,1,2.89-1.35,3.78,3.78,0,0,1,3.55,2.47,3.78,3.78,0,0,0-5.73-.54,3.42,3.42,0,0,0-.36.4l-.17-.13a2.57,2.57,0,0,0-.56-.31,2.61,2.61,0,0,0-3.11.89,2.41,2.41,0,0,0-.4.82A2.52,2.52,0,0,1,81.4,270.54Z" style="fill:#9a4a4d"></path></g></g></g><g id="freepik--Papers--inject-2"><g id="freepik--Paper--inject-2"><path id="freepik--shadow--inject-2" d="M308,264.71a3.2,3.2,0,0,1-.48,1.32c-.79,1.78.5,3.83,2.08,5a11.67,11.67,0,0,0,9.26,1.59,19.49,19.49,0,0,0,8.4-4.59c2.21-1.94,4.28-4.83,3.33-7.61-.82-2.41-3.66-3.62-6.19-3.45s-4.87,1.38-7.17,2.45a15.38,15.38,0,0,1-7.12,1.45c-.87,0-2.08.07-2.63.92C306.61,263.06,307.93,263.48,308,264.71Z" style="opacity:0.13"></path><path id="freepik--shadow--inject-2" d="M418.1,331.37a4.17,4.17,0,0,0-1.47.66,2,2,0,0,0-.41,2,4.09,4.09,0,0,0,1.31,1.72A9.61,9.61,0,0,0,427.72,337a8.35,8.35,0,0,1,2.64-1.11c1.4-.15,2.67.71,4,1.19s3.16.35,3.65-1c.23-.62.07-1.36.36-2s1.09-1,1.48-1.59a2.3,2.3,0,0,0-.74-2.91,6.1,6.1,0,0,0-3.11-1,41.27,41.27,0,0,0-7.62-.13,39.5,39.5,0,0,0-4.06.51,11.28,11.28,0,0,1-1.59.34c-.54,0-1-.32-1.56-.25C420.21,329.3,419.2,331,418.1,331.37Z" style="opacity:0.13"></path><path id="freepik--shadow--inject-2" d="M346.46,345.09c-.54,1.31.45,2.84,1.75,3.41a8.23,8.23,0,0,0,4.19.26,17.19,17.19,0,0,0,6-1.38,18.78,18.78,0,0,1,2.83-1.43c2-.6,4.18.25,6.23-.15a5.32,5.32,0,0,0,4.16-5.13l-17.94.07c-4.7,0-9.07,1.24-13.75,1.45C340.85,344.56,344.07,345.73,346.46,345.09Z" style="opacity:0.13"></path><path d="M427.79,318.58a6.63,6.63,0,0,0-5.27,2.22c-.78,1-.87,2.31-1.57,3.28s-1.95,1-1.74,2.64c.09.77.48,1.74-.15,2.19-.32.23-.76.18-1.11.37a1.2,1.2,0,0,0-.51,1.3,6.65,6.65,0,0,0,3.45,4.79,5.53,5.53,0,0,0,4.89-.23c1.21-.69,2.25-1.86,3.63-1.9,1.19,0,2.2.81,3.17,1.5s2.25,1.28,3.31.74c1.3-.66,1.46-2.61,2.73-3.32.68-.38,1.59-.36,2.08-1a2.25,2.25,0,0,0,.17-1.94C439.43,323.49,433.82,318.6,427.79,318.58Z" style="fill:#fafafa"></path><path d="M432.62,331.37c-.07-.75.42-1.43.59-2.16s-.3-1.75-1-1.57a1.58,1.58,0,0,1-1,2.07,5.84,5.84,0,0,1-2.57.15,3.19,3.19,0,0,0-2.44.63c-.67.66-.71,1.71-1.05,2.59a3.85,3.85,0,0,1-3.1,2.39,3.29,3.29,0,0,1-.94,0,5.54,5.54,0,0,0,4.67-.31c1.21-.69,2.25-1.86,3.63-1.9,1.19,0,2.2.81,3.17,1.5a4.72,4.72,0,0,0,2.26.94,1.87,1.87,0,0,0,0-.94C434.55,333.4,432.73,332.75,432.62,331.37Z" style="fill:#e0e0e0"></path><path d="M427,322.15a3.43,3.43,0,0,0,2.08.55,2.52,2.52,0,0,1,2,.8c.22.32.29.73.54,1,.57.73,1.76.55,2.54,1.06a4.56,4.56,0,0,1,1.26,2c.35.73,1.09,1.46,1.86,1.21a8,8,0,0,0-3.53-4.73,2.58,2.58,0,0,1-1.24-1.1c-.44-1.16,0-2.61-1.91-2.23A9.87,9.87,0,0,0,427,322.15Z" style="fill:#e0e0e0"></path><path d="M421.86,326.48a2.61,2.61,0,0,0,0,1.21,3,3,0,0,1,0,1.2,1,1,0,0,1-.82.77.86.86,0,0,1-.23,1c-.08.07-.19.15-.19.26s.23.21.39.17a4.06,4.06,0,0,0,1.89-1.26,3.13,3.13,0,0,1,2-1.07,2.5,2.5,0,0,0,.82-.05,1.15,1.15,0,0,0,.57-.6C427.92,324.89,422.53,324.26,421.86,326.48Z" style="fill:#e0e0e0"></path><path d="M311,258.08a3.33,3.33,0,0,0-.51.16,3.14,3.14,0,0,0-2,2.08,2.44,2.44,0,0,0,.09,1.49c.19.33.68.25.62.82a1.57,1.57,0,0,1-.56.94,2.63,2.63,0,0,0-.71.85,1.84,1.84,0,0,0,.85,2,17.26,17.26,0,0,1,1.94,1.3c.77.79,1.12,2.09,2.18,2.41a4,4,0,0,0,1.72-.08c1.31-.19,2.2.84,3.55.1.54-.3.94-.79,1.48-1.09a14.85,14.85,0,0,1,2.26-.54,11.92,11.92,0,0,0,2.15-1.13,13.5,13.5,0,0,0,6.15-12.56,8.13,8.13,0,0,0-2.42-5.19c-2.59-2.28-6.83-2-9.2-4.51.23,2.12.85,4.17,1,6.3a7.72,7.72,0,0,1-.27,3.17c-.64,1.66-1.92.19-3.14-.07a2.73,2.73,0,0,0-2.34.45,2.12,2.12,0,0,0-.28,2.85A11,11,0,0,0,311,258.08Z" style="fill:#fafafa"></path><path d="M319.3,254.6c-.3.76-.73.86-1.23.72h0s3.8,2.67,4.51,5.16c.93-3.88-3-9.05-3-9.05A7.72,7.72,0,0,1,319.3,254.6Z" style="fill:#e6e6e6"></path><path d="M313.53,263.2s-2.65.07-3.43,4.05a4,4,0,0,1,.61.47c.58.59.93,1.48,1.52,2C311.39,268.62,311.54,264.12,313.53,263.2Z" style="fill:#e6e6e6"></path><path d="M320.39,268.81h0a9.46,9.46,0,0,0,1.5-.29,9.88,9.88,0,0,0,1.39-.68,6.78,6.78,0,0,0-.27-4.28A6,6,0,0,1,320.39,268.81Z" style="fill:#e6e6e6"></path><path d="M318.07,260.05c-.87-3.15-4.86-4.09-4.87-4.1a2.1,2.1,0,0,0,.34,1.88,5.29,5.29,0,0,1,3.74,6.92S318.94,263.21,318.07,260.05Z" style="fill:#e6e6e6"></path><path d="M344.31,339.25a16,16,0,0,1-3.25.11c.55,1.3.56,2,1.63,2.9a5.25,5.25,0,0,0,4.86,1c.17,1.39.53,2.81,2.07,3.3a3,3,0,0,0,3.63-1.81,4,4,0,0,0,5.28.86c1.87-1.26,2.35-2.41,4.8-1.94,1.83.34,3.49.51,5-.81a10.55,10.55,0,0,0,2.59-4.24.27.27,0,0,0,0-.23c0-.07-.14-.09-.23-.1-3.2-.36-7.7-.24-9.61-3.44a14.2,14.2,0,0,1-1-2.5,4.21,4.21,0,0,0-1.46-2.19,1.88,1.88,0,0,0-2.44.18,3.15,3.15,0,0,0-3.69-1.18,4.16,4.16,0,0,0-2.64,2.27c-.7,1.34-.68,3-1.29,4.35a5.7,5.7,0,0,1-4,3.38Z" style="fill:#fafafa"></path><path d="M366.62,343.79c-2.53-.64-6.75-4.22-8.24-7.16,0,0-.33,4.35,2.33,7.38a3.46,3.46,0,0,1,2.62-.32A7.67,7.67,0,0,0,366.62,343.79Z" style="fill:#e6e6e6"></path><path d="M355.52,346.14c-1.63-2.15-1.5-9.51-1.5-9.51a20,20,0,0,0-.77,8.14A3.9,3.9,0,0,0,355.52,346.14Z" style="fill:#e6e6e6"></path><path d="M347.36,341.18a7.46,7.46,0,0,1-3.42,1.87,5.67,5.67,0,0,0,3.61.23c.55-2.16,4-6.13,4-6.13A18.07,18.07,0,0,0,347.36,341.18Z" style="fill:#e6e6e6"></path></g></g><g id="freepik--Cans--inject-2"><g id="freepik--Can--inject-2"><path id="freepik--shadow--inject-2" d="M408.06,375.74l-18.25,10.55a9,9,0,0,1-8.23-.05l-1.2-.72c-2.27-1.35-2.26-3.51,0-4.84l17.53-10.21a9.64,9.64,0,0,1,8.37-.19l1.66.86C410.3,372.36,410.34,374.42,408.06,375.74Z" style="opacity:0.13"></path><g id="freepik--can--inject-2"><path d="M399.05,362.47h0l-19.09,11L386.63,385l19.09-11h0a3.23,3.23,0,0,0,1.5-3.1,10.47,10.47,0,0,0-4.72-8.18A3.25,3.25,0,0,0,399.05,362.47Z" style="fill:#ebebeb"></path><path d="M388,382a10.41,10.41,0,0,0-4.72-8.17c-2.6-1.51-4.72-.29-4.72,2.72a10.43,10.43,0,0,0,4.72,8.17C385.9,386.22,388,385,388,382Z" style="fill:#fafafa"></path><path d="M387.67,381.85a10,10,0,0,0-4.43-7.67c-2.42-1.43-4.36-.31-4.33,2.5a10,10,0,0,0,4.43,7.67C385.76,385.78,387.7,384.66,387.67,381.85Z" style="fill:#ebebeb"></path><path d="M379.47,376.36A10,10,0,0,0,383.9,384a3.28,3.28,0,0,0,2.79.48,3.23,3.23,0,0,0,1-2.66,10,10,0,0,0-4.43-7.67,3.24,3.24,0,0,0-2.79-.48A3.29,3.29,0,0,0,379.47,376.36Z" style="fill:#f5f5f5"></path><path d="M403.77,375.15a3.32,3.32,0,0,0,1.4-3.07,10.42,10.42,0,0,0-4.72-8.17,3.33,3.33,0,0,0-3.34-.33l-15.27,8.82a3.32,3.32,0,0,1,3.33.33,10.42,10.42,0,0,1,4.72,8.17,3.3,3.3,0,0,1-1.4,3.07Z" style="fill:#FF725E"></path><path d="M403.77,375.15a3.32,3.32,0,0,0,1.4-3.07,10.42,10.42,0,0,0-4.72-8.17,3.33,3.33,0,0,0-3.34-.33l-15.27,8.82a3.32,3.32,0,0,1,3.33.33,10.42,10.42,0,0,1,4.72,8.17,3.3,3.3,0,0,1-1.4,3.07Z" style="opacity:0.4"></path><path d="M404.16,364.06a10.48,10.48,0,0,1,3,6.85,3.23,3.23,0,0,1-1.49,3.11h0l-19.09,11A3.35,3.35,0,0,0,388,382a5.79,5.79,0,0,0,0-.72L405.82,371C406.79,370.4,406.08,366.52,404.16,364.06Z" style="opacity:0.05"></path><path d="M382.13,376.08h0a3.26,3.26,0,0,0,1.14,2.62c.63.36,1.13-.22,1.13-1.3h0a3.27,3.27,0,0,0-1.13-2.62C382.64,374.42,382.13,375,382.13,376.08Z" style="fill:#455a64"></path><path d="M382.36,378.84v1.33a3.26,3.26,0,0,0,1.14,2.62c.62.36,1.13-.22,1.13-1.3v-1.34a3.28,3.28,0,0,0-1.13-2.61C382.87,377.17,382.36,377.76,382.36,378.84Zm1.14,1.93a1.38,1.38,0,0,1,.62,1.08c0,.39-.28.55-.62.36a1.36,1.36,0,0,1-.62-1.08C382.88,380.74,383.15,380.58,383.5,380.77Zm-.12-2.57a1.37,1.37,0,0,1,.62,1.07c0,.4-.28.56-.62.36a1.38,1.38,0,0,1-.62-1.07C382.76,378.16,383,378,383.38,378.2Z" style="fill:#ebebeb"></path></g><polygon points="398.07 363.96 398.23 367.06 400 368.11 399.76 371.51 397.27 371.57 398.21 368.4 396.83 367.77 398.07 363.96" style="fill:#ebebeb"></polygon><polygon points="393.87 375.67 395.79 371.09 394.47 370.19 396.45 368.21 395.21 367.55 397.09 364.76 392.71 367.92 394.12 368.61 391.22 370.74 393.1 371.92 390.56 374.02 393.87 375.67" style="fill:#ebebeb"></polygon><g id="freepik--Shine--inject-2"><path d="M396.5,373.83s.07.05.06.08V374a.37.37,0,0,0,.26.41l.07,0a.07.07,0,0,1,.05.08.08.08,0,0,1-.08.06h-.08a.37.37,0,0,0-.41.26l0,.07a.07.07,0,0,1-.08.05.09.09,0,0,1-.06-.09v-.07a.37.37,0,0,0-.26-.41l-.07,0a.07.07,0,0,1-.05-.08.08.08,0,0,1,.09-.06H396a.37.37,0,0,0,.41-.26l0-.07A.07.07,0,0,1,396.5,373.83Zm.07.59a.19.19,0,1,0-.38-.08.19.19,0,0,0,.38.08Z" style="fill:#ebebeb"></path><path d="M397.73,372.41a.47.47,0,0,1,.35.56.46.46,0,0,1-.56.36.47.47,0,0,1-.35-.56A.48.48,0,0,1,397.73,372.41Zm-.18.78a.32.32,0,0,0,.39-.25.31.31,0,0,0-.24-.38.32.32,0,0,0-.39.24A.33.33,0,0,0,397.55,373.19Z" style="fill:#ebebeb"></path><path d="M398.71,374.71a.09.09,0,0,1,.06.09l-.06.24a.07.07,0,0,1-.14,0l.05-.23A.08.08,0,0,1,398.71,374.71Z" style="fill:#ebebeb"></path><path d="M398.88,374.6l.24,0a.08.08,0,1,1,0,.15l-.24-.06a.07.07,0,0,1-.05-.08S398.85,374.59,398.88,374.6Z" style="fill:#ebebeb"></path><path d="M398.83,374.17a.08.08,0,0,1,.06.09l-.06.24a.07.07,0,0,1-.08.05.06.06,0,0,1-.06-.08l.05-.24A.08.08,0,0,1,398.83,374.17Z" style="fill:#ebebeb"></path><path d="M398.35,374.48l.24,0a.08.08,0,0,1,.05.09.09.09,0,0,1-.09.06l-.24-.06a.07.07,0,0,1,0-.14Z" style="fill:#ebebeb"></path></g><g id="freepik--shine--inject-2"><path d="M391,369.42a.47.47,0,0,1-.41.52.48.48,0,0,1-.52-.42.47.47,0,1,1,.93-.1Zm-.79.08a.33.33,0,0,0,.36.29.33.33,0,0,0,.29-.36.32.32,0,0,0-.36-.28A.32.32,0,0,0,390.22,369.5Z" style="fill:#ebebeb"></path><path d="M389.16,371.09a.08.08,0,0,1-.06.09l-.25,0s-.07,0-.08-.06a.08.08,0,0,1,.07-.08l.24,0A.06.06,0,0,1,389.16,371.09Z" style="fill:#ebebeb"></path><path d="M389.32,371.22l0,.25s0,.07-.06.08a.08.08,0,0,1-.08-.07l0-.24a.07.07,0,1,1,.14,0Z" style="fill:#ebebeb"></path><path d="M389.71,371s0,.08-.06.08l-.25,0s-.07,0-.08-.06a.08.08,0,0,1,.07-.08l.24,0A.06.06,0,0,1,389.71,371Z" style="fill:#ebebeb"></path><path d="M389.26,370.67l0,.25a.08.08,0,1,1-.15,0l0-.24a.06.06,0,0,1,.06-.08S389.26,370.63,389.26,370.67Z" style="fill:#ebebeb"></path></g><g id="freepik--shine--inject-2"><path d="M401,368.83a.08.08,0,0,1,.1,0l.06,0a.38.38,0,0,0,.48-.06l.05-.06a.08.08,0,0,1,.1,0,.08.08,0,0,1,0,.1l0,.06h0a.37.37,0,0,0,.06.48l.05.05a.07.07,0,0,1,0,.1.07.07,0,0,1-.09,0l-.06,0a.38.38,0,0,0-.49.06l0,.05a.07.07,0,0,1-.1,0,.07.07,0,0,1,0-.09l0-.06a.38.38,0,0,0-.07-.49l-.05,0A.08.08,0,0,1,401,368.83Zm.56.19a.46.46,0,0,1-.26,0,.63.63,0,0,1,0,.27.51.51,0,0,1,.27,0A.46.46,0,0,1,401.56,369Z" style="fill:#ebebeb"></path><path d="M399.48,366.13a.47.47,0,1,1,.75.57.47.47,0,1,1-.75-.57Zm.63.48a.32.32,0,0,0-.06-.45.31.31,0,0,0-.45.06.32.32,0,1,0,.51.39Z" style="fill:#ebebeb"></path><path d="M402,367.1a.08.08,0,0,1,.1,0l.2.15a.07.07,0,0,1,0,.1.08.08,0,0,1-.1,0l-.19-.15A.08.08,0,0,1,402,367.1Z" style="fill:#ebebeb"></path><path d="M401.93,366.9l.15-.19a.08.08,0,0,1,.11,0,.08.08,0,0,1,0,.1l-.15.2a.07.07,0,0,1-.1,0A.08.08,0,0,1,401.93,366.9Z" style="fill:#ebebeb"></path><path d="M401.52,366.77a.08.08,0,0,1,.11,0l.19.14a.08.08,0,0,1,0,.11.07.07,0,0,1-.1,0l-.19-.15A.07.07,0,0,1,401.52,366.77Z" style="fill:#ebebeb"></path><path d="M401.6,367.34l.15-.2a.08.08,0,0,1,.1,0,.07.07,0,0,1,0,.1l-.14.2a.08.08,0,0,1-.11,0A.07.07,0,0,1,401.6,367.34Z" style="fill:#ebebeb"></path></g></g><g id="freepik--can--inject-2"><path id="freepik--shadow--inject-2" d="M437.84,299.72l18.25,10.54a9,9,0,0,0,8.24-.05l1.2-.71c2.26-1.35,2.25-3.52,0-4.85L448,294.45a9.62,9.62,0,0,0-8.36-.2l-1.67.87C435.6,296.34,435.56,298.4,437.84,299.72Z" style="opacity:0.13"></path><g id="freepik--can--inject-2"><path d="M446.51,285.93h0l19.09,11-6.68,11.56-19.09-11h0a3.22,3.22,0,0,1-1.49-3.1,10.44,10.44,0,0,1,4.72-8.18A3.24,3.24,0,0,1,446.51,285.93Z" style="fill:#ebebeb"></path><path d="M457.55,305.45a10.47,10.47,0,0,1,4.72-8.18c2.61-1.5,4.72-.28,4.72,2.73a10.41,10.41,0,0,1-4.72,8.17C459.67,309.68,457.55,308.46,457.55,305.45Z" style="fill:#fafafa"></path><path d="M457.89,305.31a10,10,0,0,1,4.43-7.67c2.42-1.43,4.36-.31,4.33,2.5a10,10,0,0,1-4.43,7.67C459.8,309.24,457.86,308.12,457.89,305.31Z" style="fill:#ebebeb"></path><path d="M466.09,299.81a10,10,0,0,1-4.43,7.68,2.22,2.22,0,0,1-3.77-2.18,10,10,0,0,1,4.43-7.67,2.21,2.21,0,0,1,3.77,2.17Z" style="fill:#f5f5f5"></path><path d="M441.8,298.61a3.3,3.3,0,0,1-1.4-3.07,10.42,10.42,0,0,1,4.71-8.17,3.34,3.34,0,0,1,3.34-.33l15.28,8.82a3.33,3.33,0,0,0-3.34.33,10.41,10.41,0,0,0-4.72,8.17,3.32,3.32,0,0,0,1.4,3.07Z" style="fill:#FF725E"></path><path d="M441.8,298.61a3.3,3.3,0,0,1-1.4-3.07,10.42,10.42,0,0,1,4.71-8.17,3.34,3.34,0,0,1,3.34-.33l15.28,8.82a3.33,3.33,0,0,0-3.34.33,10.41,10.41,0,0,0-4.72,8.17,3.32,3.32,0,0,0,1.4,3.07Z" style="fill:#fff;opacity:0.6000000000000001"></path><path d="M441.4,287.52a10.47,10.47,0,0,0-3,6.84,3.23,3.23,0,0,0,1.49,3.11h0l19.08,11a3.32,3.32,0,0,1-1.38-3.05,5.79,5.79,0,0,1,0-.72l-17.85-10.31C438.78,293.86,439.49,290,441.4,287.52Z" style="opacity:0.05"></path><path d="M462.3,298.24a3.26,3.26,0,0,0-1.14,2.62h0c0,1.08.51,1.66,1.14,1.3a3.27,3.27,0,0,0,1.13-2.62h0C463.43,298.46,462.93,297.88,462.3,298.24Z" style="fill:#455a64"></path><path d="M462.07,301a3.25,3.25,0,0,0-1.14,2.61V305c0,1.08.51,1.66,1.14,1.3a3.26,3.26,0,0,0,1.14-2.62V302.3C463.21,301.22,462.7,300.63,462.07,301Zm.62,3.59a1.35,1.35,0,0,1-.62,1.07c-.35.2-.62,0-.62-.35a1.36,1.36,0,0,1,.62-1.08C462.41,304,462.69,304.19,462.69,304.59Zm.11-2.58a1.36,1.36,0,0,1-.62,1.08c-.34.2-.62,0-.62-.36a1.35,1.35,0,0,1,.62-1.07C462.53,301.46,462.8,301.62,462.8,302Z" style="fill:#ebebeb"></path></g><polygon points="447.49 287.42 447.34 290.51 445.56 291.57 445.8 294.97 448.29 295.03 447.36 291.85 448.73 291.23 447.49 287.42" style="fill:#455a64"></polygon><polygon points="451.69 299.13 449.77 294.55 451.09 293.65 449.11 291.66 450.35 291.01 448.47 288.21 452.85 291.38 451.44 292.06 454.34 294.2 452.47 295.38 455 297.48 451.69 299.13" style="fill:#455a64"></polygon><g id="freepik--shine--inject-2"><path d="M449.15,297.34l0,.07a.36.36,0,0,0,.41.26h.07a.07.07,0,0,1,.08,0,.07.07,0,0,1-.05.09l-.07,0a.39.39,0,0,0-.26.41v.07a.08.08,0,0,1-.05.09.09.09,0,0,1-.09-.06l0-.06a.36.36,0,0,0-.41-.26h-.07s-.08,0-.08-.06a.08.08,0,0,1,.05-.09l.06,0a.36.36,0,0,0,.26-.41v-.07a.08.08,0,0,1,.06-.08A.07.07,0,0,1,449.15,297.34Zm.08.68a.44.44,0,0,1,.14-.22.51.51,0,0,1-.23-.15.49.49,0,0,1-.14.23A.68.68,0,0,1,449.23,298Z" style="fill:#455a64"></path><path d="M448.4,296.23a.48.48,0,0,1-.36.56.47.47,0,0,1-.56-.36.47.47,0,1,1,.92-.2Zm-.15,0a.31.31,0,0,0-.38-.25.33.33,0,0,0-.25.39.34.34,0,0,0,.39.25A.33.33,0,0,0,448.25,296.26Z" style="fill:#455a64"></path><path d="M446.85,298.17a.07.07,0,0,0-.05.09l.05.24a.08.08,0,0,0,.09.05.07.07,0,0,0,.05-.09l-.05-.24A.07.07,0,0,0,446.85,298.17Z" style="fill:#455a64"></path><path d="M446.68,298.06l-.24.05a.09.09,0,0,0-.06.09.07.07,0,0,0,.09.05l.24-.05a.08.08,0,0,0,.06-.09A.07.07,0,0,0,446.68,298.06Z" style="fill:#455a64"></path><path d="M446.73,297.63a.07.07,0,0,0-.05.09l.05.24a.07.07,0,1,0,.14,0l-.05-.23A.08.08,0,0,0,446.73,297.63Z" style="fill:#455a64"></path><path d="M447.22,297.94,447,298a.08.08,0,0,0-.06.09.07.07,0,0,0,.09.05l.24-.05a.07.07,0,0,0,.05-.09S447.26,297.93,447.22,297.94Z" style="fill:#455a64"></path></g><g id="freepik--shine--inject-2"><path d="M455.07,292.46a.46.46,0,0,1,.41.52.46.46,0,0,1-.52.41.47.47,0,1,1,.11-.93Zm0,.14a.32.32,0,0,0-.35.29.32.32,0,0,0,.28.36.33.33,0,0,0,.36-.29A.33.33,0,0,0,455.05,292.6Z" style="fill:#455a64"></path><path d="M456.4,294.55a.08.08,0,0,0,.07.08l.24,0a.06.06,0,0,0,.08-.06.08.08,0,0,0-.06-.09l-.25,0S456.41,294.51,456.4,294.55Z" style="fill:#455a64"></path><path d="M456.24,294.68l0,.24a.1.1,0,0,0,.07.09.08.08,0,0,0,.08-.07l0-.24a.08.08,0,0,0-.07-.08A.06.06,0,0,0,456.24,294.68Z" style="fill:#455a64"></path><path d="M455.85,294.49a.08.08,0,0,0,.07.08l.24,0a.08.08,0,0,0,.08-.07s0-.07-.06-.08l-.25,0S455.86,294.45,455.85,294.49Z" style="fill:#455a64"></path><path d="M456.3,294.13l0,.25a.08.08,0,0,0,.07.08.08.08,0,0,0,.08-.07l0-.24a.08.08,0,0,0-.07-.08S456.31,294.09,456.3,294.13Z" style="fill:#455a64"></path></g><g id="freepik--shine--inject-2"><path d="M444.55,292.39l-.05,0a.37.37,0,0,0-.07.48l0,.06s0,.08,0,.1a.07.07,0,0,1-.1,0l-.05-.05a.36.36,0,0,0-.48-.06l-.06,0a.07.07,0,0,1-.1,0,.08.08,0,0,1,0-.1l.05-.05a.37.37,0,0,0,.07-.48h0l0-.06a.08.08,0,0,1,0-.1.06.06,0,0,1,.09,0l.05.05a.37.37,0,0,0,.48.07l.06,0a.08.08,0,0,1,.1,0A.08.08,0,0,1,444.55,292.39Zm-.58.35a.46.46,0,0,1,.26,0,.51.51,0,0,1,0-.27.61.61,0,0,1-.27,0A.57.57,0,0,1,444,292.74Z" style="fill:#455a64"></path><path d="M446,290.24a.47.47,0,0,1-.66-.08.48.48,0,0,1,.09-.66.47.47,0,0,1,.66.09A.45.45,0,0,1,446,290.24Zm-.09-.11a.32.32,0,0,0,.06-.46.33.33,0,0,0-.45-.06.33.33,0,0,0-.06.46A.32.32,0,0,0,445.9,290.13Z" style="fill:#455a64"></path><path d="M443.6,290.56a.07.07,0,0,0-.1,0l-.19.15a.07.07,0,0,0,0,.1.07.07,0,0,0,.1,0l.2-.14A.08.08,0,0,0,443.6,290.56Z" style="fill:#455a64"></path><path d="M443.63,290.36l-.15-.2a.08.08,0,0,0-.1,0,.08.08,0,0,0,0,.1l.15.2a.08.08,0,0,0,.11,0A.08.08,0,0,0,443.63,290.36Z" style="fill:#455a64"></path><path d="M444,290.23a.08.08,0,0,0-.1,0l-.2.15a.08.08,0,0,0,0,.11.08.08,0,0,0,.1,0l.2-.15A.07.07,0,0,0,444,290.23Z" style="fill:#455a64"></path><path d="M444,290.8l-.14-.2a.08.08,0,0,0-.11,0,.07.07,0,0,0,0,.1l.15.2a.08.08,0,0,0,.1,0A.07.07,0,0,0,444,290.8Z" style="fill:#455a64"></path></g></g></g><g id="freepik--paint-pot--inject-2"><g id="freepik--Paint--inject-2"><path d="M200.1,405.64H163.86l1.64,25.76h0c0,2.4,1.53,4.8,4.67,6.66,6.27,3.72,16.52,3.83,22.88.25,3.21-1.81,4.81-4.21,4.81-6.62Z" style="fill:#ebebeb"></path><path d="M169.22,397.61c-7.12,4-7.19,10.65-.16,14.81s18.52,4.29,25.65.28,7.2-10.64.16-14.81S176.35,393.6,169.22,397.61Z" style="fill:#fafafa"></path><path d="M198.53,405.33a4.77,4.77,0,0,1-.25,1.42,8.88,8.88,0,0,1-4.35,4.58,26.84,26.84,0,0,1-24.07-.26,8.78,8.78,0,0,1-4.2-4.58,4.42,4.42,0,0,1-.26-1.52c0-2.21,1.66-4.34,4.6-6a26.84,26.84,0,0,1,24.07.26C197,401,198.55,403.12,198.53,405.33Z" style="fill:#e0e0e0"></path><path d="M182.06,408.2A24.54,24.54,0,0,0,170,410.94l-.17.11,0,0a26.84,26.84,0,0,0,24.07.26l.18-.11,0,0A24.59,24.59,0,0,0,182.06,408.2Z" style="fill:#FF725E"></path><path d="M182.06,408.2A24.54,24.54,0,0,0,170,410.94l-.17.11,0,0a26.84,26.84,0,0,0,24.07.26l.18-.11,0,0A24.59,24.59,0,0,0,182.06,408.2Z" style="fill:#fff;opacity:0.6000000000000001"></path><path d="M183.22,414a11.19,11.19,0,0,1-3.29-1.24,4.7,4.7,0,0,1-2.25-2.44,2.5,2.5,0,0,1-.13-.81,2.55,2.55,0,0,1,.26-1.06,22.07,22.07,0,0,0-7.81,2.47l-.17.11,0,0a24.71,24.71,0,0,0,12,3C182.32,414.05,182.77,414,183.22,414Z" style="opacity:0.1"></path><path d="M188.86,415.32c.71-.4,1.27-.07,1.27.75a2.85,2.85,0,0,1-1.31,2.2c-.71.4-1.27.06-1.26-.76A2.82,2.82,0,0,1,188.86,415.32Z" style="fill:#263238"></path><path d="M164.28,412.83c-1.56,4-2.77,9.45.72,12l.57.39,0,1.69c-.46-.28-.93-.6-1.39-.94-5.2-3.85-2-12.28,0-16.38Z" style="fill:#455a64"></path><path d="M189.46,417.12c-.19.41-5.19,10-13.42,11.89a11.89,11.89,0,0,1-2.83.33,14.29,14.29,0,0,1-7.66-2.39l0-1.69c3.39,2.36,6.81,3.17,10.16,2.39,7.58-1.78,12.44-11.09,12.48-11.18a.71.71,0,0,1,.95-.3A.69.69,0,0,1,189.46,417.12Z" style="fill:#455a64"></path></g></g><g id="freepik--character-1--inject-2"><g id="freepik--Character--inject-2"><g id="freepik--Bottom--inject-2"><path d="M211.54,232.16c-.09-3-.79-33.81-.79-33.81L225,209.92c-3,17.48-4.06,22.15-4.25,25.07h0a2.63,2.63,0,0,1,.05.76c-.17,3.47-4.18,5.17-7.35,7.35a56.7,56.7,0,0,1-8.53,5c-2.27,1-6.79.91-7.29-.54,3.86-2.68,8.31-5.59,11.42-8.7C210.57,237.39,211.65,235.82,211.54,232.16Z" style="fill:#f28f8f"></path><path d="M191.14,251a3,3,0,0,0,.42,3,12.79,12.79,0,0,0,9.26,2.56c4.67-.39,7.25-1.71,9.18-3.18s4.64-3.55,6.76-3.91a12.87,12.87,0,0,0,4.79-1.71c.65-.57.68-3.26.68-3.26Z" style="fill:#263238"></path><path d="M220.85,234.14a.76.76,0,0,1,.68.66c.11.75.16,2.91.42,4.13a22,22,0,0,1,.15,6.54c-.32,1.36-3.54,2.17-5.61,2.85a26.18,26.18,0,0,0-6.78,3.86,19.11,19.11,0,0,1-10,3.2c-4.63-.14-7.56-1.53-8.41-3.23-1.05-2.11-.1-3.26,5.32-5.48,1-.42,4.66-2.35,5.89-3,3.35-1.9,6.71-4.61,8.37-8.16a2,2,0,0,1,.82-1.08,1.67,1.67,0,0,1,1,0,8.79,8.79,0,0,1,2.52.88c.69.38,1.69.82,1.63,1.73a3.29,3.29,0,0,1-.24.92c-.08.18-.14.43,0,.55s.36,0,.5-.12a13.14,13.14,0,0,0,1.51-1.65,5.67,5.67,0,0,1,.88-.82,9.64,9.64,0,0,0,.94-.55C220.88,235,220.82,234.57,220.85,234.14Z" style="fill:#FF725E"></path><path d="M220.85,234.14a.76.76,0,0,1,.68.66c.11.75.16,2.91.42,4.13a22,22,0,0,1,.15,6.54c-.32,1.36-3.54,2.17-5.61,2.85a26.18,26.18,0,0,0-6.78,3.86,19.11,19.11,0,0,1-10,3.2c-4.63-.14-7.56-1.53-8.41-3.23-1.05-2.11-.1-3.26,5.32-5.48,1-.42,4.66-2.35,5.89-3,3.35-1.9,6.71-4.61,8.37-8.16a2,2,0,0,1,.82-1.08,1.67,1.67,0,0,1,1,0,8.79,8.79,0,0,1,2.52.88c.69.38,1.69.82,1.63,1.73a3.29,3.29,0,0,1-.24.92c-.08.18-.14.43,0,.55s.36,0,.5-.12a13.14,13.14,0,0,0,1.51-1.65,5.67,5.67,0,0,1,.88-.82,9.64,9.64,0,0,0,.94-.55C220.88,235,220.82,234.57,220.85,234.14Z" style="opacity:0.5"></path><path d="M195.79,247c6.67.76,8.59,5,8.75,7.56a15.6,15.6,0,0,1-4.79.78c-4.63-.14-7.75-1.54-8.6-3.24C190.16,250.15,191,248.62,195.79,247Z" style="fill:#fafafa"></path><path d="M205.81,247.56a.26.26,0,0,0,.21-.06.32.32,0,0,0,.07-.46,7.88,7.88,0,0,0-5.94-2.66.33.33,0,1,0,0,.65,7.33,7.33,0,0,1,5.38,2.4A.31.31,0,0,0,205.81,247.56Z" style="fill:#f0f0f0"></path><path d="M208.77,246a.33.33,0,0,0,.28-.52,7.84,7.84,0,0,0-5.94-2.67.33.33,0,0,0-.31.35.33.33,0,0,0,.35.31,7.3,7.3,0,0,1,5.38,2.4A.34.34,0,0,0,208.77,246Z" style="fill:#f0f0f0"></path><path d="M211.53,244.22a.32.32,0,0,0,.21-.06.33.33,0,0,0,.07-.46,7.88,7.88,0,0,0-5.94-2.66.33.33,0,1,0,0,.65,7.25,7.25,0,0,1,5.37,2.4A.31.31,0,0,0,211.53,244.22Z" style="fill:#f0f0f0"></path><path d="M214.23,242.42a.27.27,0,0,0,.21-.06.31.31,0,0,0,.07-.45,8,8,0,0,0-6.49-2.72.32.32,0,0,0-.31.34.33.33,0,0,0,.35.31,7.41,7.41,0,0,1,5.92,2.45A.33.33,0,0,0,214.23,242.42Z" style="fill:#f0f0f0"></path><path d="M242.07,210.39l14.83-2.07c.42,9.85-1,21.59-.62,30.83.06,1.74.92,13.49.5,17.11-.63,5.43-7,5.12-7.6,1.93s-.69-17-.81-18.38c-.33-5.92-3.5-15.72-5.65-26.25C242.62,213.05,242.17,210.89,242.07,210.39Z" style="fill:#f28f8f"></path><path d="M246.93,260.58c.07,3.16.49,5.28,1.54,7.17a4.65,4.65,0,0,0,5.31,2.07c2.16-.46,5-1.82,5.66-4.52a17.38,17.38,0,0,0,.27-7.52Z" style="fill:#263238"></path><path d="M256.24,238c.88.1,1,4.35,1.35,8.61.39,4.57,1.68,6.5,2,10.24.4,4.28.11,6.18-1.47,8.7s-7,4.87-9.43,1.09c-2-3.08-2-6.42-1.65-10.67a107.23,107.23,0,0,0,.58-10.82c-.06-3.2-.18-6.3.6-6.63.05.47.08,1.07.13,1.53s.06,2.09.55,2.12A6.9,6.9,0,0,0,249,241a1.44,1.44,0,0,1,.27-1,1.69,1.69,0,0,1,1-.41,25.7,25.7,0,0,1,2.64-.31c.44,0,.88,0,1.32,0a3.46,3.46,0,0,1,1.11.2.79.79,0,0,1,.46.45,1.33,1.33,0,0,1,0,.49,3.75,3.75,0,0,0,.08.88c0,.12.11.28.24.25s.15-.14.15-.25c0-.51,0-.89,0-1.49,0-.28,0-.65,0-.93S256.25,238.29,256.24,238Z" style="fill:#FF725E"></path><path d="M256.24,238c.88.1,1,4.35,1.35,8.61.39,4.57,1.68,6.5,2,10.24.4,4.28.11,6.18-1.47,8.7s-7,4.87-9.43,1.09c-2-3.08-2-6.42-1.65-10.67a107.23,107.23,0,0,0,.58-10.82c-.06-3.2-.18-6.3.6-6.63.05.47.08,1.07.13,1.53s.06,2.09.55,2.12A6.9,6.9,0,0,0,249,241a1.44,1.44,0,0,1,.27-1,1.69,1.69,0,0,1,1-.41,25.7,25.7,0,0,1,2.64-.31c.44,0,.88,0,1.32,0a3.46,3.46,0,0,1,1.11.2.79.79,0,0,1,.46.45,1.33,1.33,0,0,1,0,.49,3.75,3.75,0,0,0,.08.88c0,.12.11.28.24.25s.15-.14.15-.25c0-.51,0-.89,0-1.49,0-.28,0-.65,0-.93S256.25,238.29,256.24,238Z" style="opacity:0.5"></path><path d="M259.79,259.35c.06,2.65-.16,4.46-1.4,6.44-1.58,2.52-7.38,4.86-9.86,1.07a12.1,12.1,0,0,1-1.6-6.28C248.59,257.79,257.41,256.84,259.79,259.35Z" style="fill:#fafafa"></path><path d="M249.35,256l.11,0a12.86,12.86,0,0,1,7.64-.52.34.34,0,0,0,.4-.23.33.33,0,0,0-.24-.4,13.3,13.3,0,0,0-8.06.55.32.32,0,0,0-.17.43A.35.35,0,0,0,249.35,256Z" style="fill:#f0f0f0"></path><path d="M257,252.3a.33.33,0,0,0,.1-.64,11.25,11.25,0,0,0-8,.48.32.32,0,0,0-.16.44.34.34,0,0,0,.44.15s3.9-1.83,7.53-.45Z" style="fill:#f0f0f0"></path><path d="M256.87,249.29a.31.31,0,0,0,.28-.2.33.33,0,0,0-.18-.43,10.13,10.13,0,0,0-8.21.45.33.33,0,1,0,.32.57,9.65,9.65,0,0,1,7.65-.41A.23.23,0,0,0,256.87,249.29Z" style="fill:#f0f0f0"></path><path d="M256.72,245.92a.33.33,0,0,0,.1-.63c-4-1.67-8.1.44-8.27.54a.32.32,0,0,0,.31.57s4-2.05,7.71-.5A.39.39,0,0,0,256.72,245.92Z" style="fill:#ebebeb"></path><path d="M250.24,111.46c2.59,6.55,5.47,11.17,5.41,23.35-.13,25.87-1.07,44.53-1.07,44.53.09,2.28,1.13,5.66,2.27,17.46.95,9.89.14,25,.14,25s-6.71,3.24-12.72.54c-2.14-8.48-5.69-30.59-8-41.94-2-10.3-3.9-25.34-3.9-25.34l-4.74,25.18s.37,10.16-.18,16.12c-.63,6.94-4.55,26.32-4.55,26.32s-6.86,2.72-12-1.35c0,0-1.35-35.06-1.12-43.43.47-16.42.83-51,4.29-68.12Z" style="fill:#FF725E"></path><path d="M250.24,111.46c2.59,6.55,5.47,11.17,5.41,23.35-.13,25.87-1.07,44.53-1.07,44.53.09,2.28,1.13,5.66,2.27,17.46.95,9.89.14,25,.14,25s-6.71,3.24-12.72.54c-2.14-8.48-5.69-30.59-8-41.94-2-10.3-3.9-25.34-3.9-25.34l-4.74,25.18s.37,10.16-.18,16.12c-.63,6.94-4.55,26.32-4.55,26.32s-6.86,2.72-12-1.35c0,0-1.35-35.06-1.12-43.43.47-16.42.83-51,4.29-68.12Z" style="opacity:0.30000000000000004"></path><path d="M257.39,219.38c-2.54,1.47-10.45,2.22-13.79.84l.82,4s1.49,1.13,6.16,1,6.55-2,6.55-2Z" style="fill:#455a64"></path><path d="M223.77,219.32c-2.71,1.13-10,.88-13.16-.92l.29,4.08s1,1.56,5.7,1.81,6.41-1.13,6.41-1.13Z" style="fill:#455a64"></path><path d="M232.42,155.08l-2.18-18.36s-10.85-1.67-14.68-5.62c0,0,4.75,7.23,12.11,8.64L230.24,155,227.72,180Z" style="opacity:0.15"></path></g><g id="freepik--Top--inject-2"><g id="freepik--Hat--inject-2"><path d="M231.2,46c8.36,3.26,17.32.33,20-6.55s-1.93-15.09-10.29-18.35-17.32-.33-20,6.55S222.83,42.72,231.2,46Z" style="fill:#FF725E"></path><path d="M231.2,46c8.36,3.26,17.32.33,20-6.55s-1.93-15.09-10.29-18.35-17.32-.33-20,6.55S222.83,42.72,231.2,46Z" style="fill:#fff;opacity:0.6000000000000001"></path><path d="M239.31,26.46c-15-6.65-30.45-4.55-34.54,4.68s4.74,22.1,19.72,28.74,30.45,4.54,34.54-4.69S254.29,33.1,239.31,26.46Z" style="fill:#FF725E"></path></g><path id="freepik--Hair--inject-2" d="M249.61,47.41c-.2-.23,0,7.55,1,11.77.79,3.49,4,11.59,5.45,18.61,1.31,6.5,7,24.26-7,30.7H220.56s-1.29-39.88,2.84-50.77,3.31-12.82,3.31-12.82Z" style="fill:#263238"></path><g id="freepik--Arm--inject-2"><path d="M223.6,64c-4.1-.18-7.75.66-10.21,3.76-3.87,4.85-11.32,17.24-15.62,24.84l-17.93,5.49,2.73,9.2s12.65-1.94,16.82-2.77c6.36-1.27,6.84-.64,9.29-4.19,2.11-3.05,8-11.82,8-11.82Z" style="fill:#f28f8f"></path><g id="freepik--Shovel--inject-2"><path d="M145.83,190.87l-1.78,1-4.22,23.45c-1.26,7-.29,12.27,1.57,19.4l2,7.78c.71,2.73,2.11,4.42,3.5,4.42,1.8,0,3.74-.82,7-2.94s5.69-4.36,7.78-12.91a126,126,0,0,0,3-22.79Z" style="fill:#263238"></path><polygon points="145.83 190.87 144.05 191.9 162.88 209.33 164.65 208.31 145.83 190.87" style="fill:#455a64"></polygon><path d="M140.49,233.86a72.92,72.92,0,0,0,2.64,8.7c1.18,3.13,2.41,4.39,3.8,4.39a3.18,3.18,0,0,0,1.45-.36,15.83,15.83,0,0,0,3.85-2.32c3.51-2.67,5.38-4.9,7.18-11.58,2.65-9.81,3.47-23.36,3.47-23.36L144.05,191.9l-4.22,23.45C138.57,222.33,138.84,226.44,140.49,233.86Z" style="fill:#37474f"></path><path d="M151.68,199l3.57,3.31c-.15,5.18-2.59,19.16-3.65,21.34s-2.21,1-2-1S152,205,151.68,199Z" style="fill:#263238"></path><path d="M164.68,126.8l3.56,3.3-13,72.17c-.44,1.82-4.27.56-3.57-3.31Z" style="fill:#FF725E"></path><path d="M164.68,126.8l3.56,3.3-13,72.17c-.44,1.82-4.27.56-3.57-3.31Z" style="opacity:0.30000000000000004"></path><path d="M162.61,137.78c-.64,3.52,3.4,5.35,3.74,3.47l2-11.37-3.74-3.46Z" style="fill:#455a64"></path><path d="M163.14,110.59a30.69,30.69,0,0,0,.55,12.81l1.34,5.15c.48,1.82,1.51,2.78,2.41,2.24l2.56-1.55c2-1.23,3.62-4.24,4.34-8.26l1.17-6.5a4.07,4.07,0,0,0,.07-.79h0a4.51,4.51,0,0,0-.53-2.27,26.1,26.1,0,0,0-4.5-5.69,13.94,13.94,0,0,0-5-3.09c-.42-.14-.82.17-1.08.78h0a3.2,3.2,0,0,0-.19.68Zm6.32,15.89L166.91,128c-.24.15-.51-.11-.64-.58l-1.34-5.16a25.11,25.11,0,0,1-.45-10.44l.65-3.6c3.13,1,6,3.61,8.52,7.89l-.65,3.6C172.41,123,171.12,125.47,169.46,126.48Z" style="fill:#37474f"></path></g><path d="M179.84,98.13c-4.13,1.4-7.9,1.2-10.08,2.46-1.3.74-4.49,5.89-4.23,7.32.4,2.2.6,3.25,2.54,5.12s2.7,3.12,3.56,3.43a3,3,0,0,0,2-.33l-2-3s-.75-3.39,2-3.88l1.4,2.13a7.29,7.29,0,0,1,.31,3.87,1.93,1.93,0,0,0,2.53-.87c1.09-1.64,2-4.85,2.81-5.93s4-1.49,4-1.49Z" style="fill:#f28f8f"></path><path d="M223.4,63.79c-2.84,0-6.33-.27-9.36,2.88s-4.88,6.56-7.23,10.31-4.93,8.57-4.93,8.57,2.35,5.86,10.47,9.43L223,80.05Z" style="fill:#ebebeb"></path><path d="M197.77,92.64c2.07.46,5.4,2.33,5.87,4.41,0,0,.08-3.42-5.12-5.74Z" style="fill:#b16668"></path></g><g id="freepik--Chest--inject-2"><path d="M215.11,91.69c.19,4.31-2.76,27.3-2.76,27.3,11.28,6.94,36.33,6.47,40.34-2.93-1.15-3.25-4.29-10-4-13l2.82-17.32a35.84,35.84,0,0,1-4-20.47l-9.65-1.45-9.27-.16-5.18.13c-2,1.74-5.23,6.25-8.25,11.38C211.47,81.43,211.39,87.36,215.11,91.69Z" style="fill:#f5f5f5"></path></g><text transform="matrix(0.75, 0.09, -0.21, 0.98, 216.92, 82.94)" style="font-size:4.878389835357666px;fill:#455a64;font-family:Rubik-Bold, Rubik;font-weight:700"><tspan style="letter-spacing:-0.023133126960662075em">V</tspan><tspan x="3.28" y="0">O</tspan><tspan x="6.79" y="0" style="letter-spacing:-0.014092594585230916em">L</tspan><tspan x="9.66" y="0" style="letter-spacing:0.00026589801104209284em">UNTEER</tspan></text><path d="M225.26,89.85c2.61-4.3,9.55-2.44,7.25,3.47-2.16,5.52-8.92,8.47-8.92,8.47s-4.71-3.82-5.38-8.46C217.31,87.14,223.53,84.62,225.26,89.85Z" style="fill:#FF725E"></path><g id="freepik--Head--inject-2"><path d="M240.1,58.64c1.26-1.42,3.31-2.47,6.29-5.69,4.13-4.47,6.67-14.15.46-20-4.12-6-13.9-8.64-20.25-7.52-10.19,1.78-12,11.11-9.62,14.53Z" style="fill:#263238"></path><path d="M247.56,45a2.63,2.63,0,0,0-4.23-.15c-.39.49-.65,1.08-1,1.59a2,2,0,0,1-1.57.91,1.45,1.45,0,0,1-1.21-.69,4.9,4.9,0,0,1-.3-1.79c-.86-8.52-3.05-10.38-9-8.92-2.67-2.5-4.22-3-7.36-2.76-3.43.27-6.17,1.7-6.17,11.57,0,8.73,3,12.89,4.43,13.73s3.29,1.09,6.21.92l-.23,5a6.31,6.31,0,0,0,.15,7.32,17.12,17.12,0,0,0,6.81-1.48c5.88-2.59,5.67-5.32,5.67-5.32l.76-13.21s1.82,2.81,4.95.61C248,50.51,249.2,47.1,247.56,45Z" style="fill:#f28f8f"></path><path d="M229.74,43.78a1.32,1.32,0,0,0,1.1,1.48,1.25,1.25,0,0,0,1.46-1,1.32,1.32,0,0,0-1.1-1.48A1.25,1.25,0,0,0,229.74,43.78Z" style="fill:#263238"></path><path d="M218.83,40.16l2.82-1.23a1.47,1.47,0,0,0-2-.83A1.62,1.62,0,0,0,218.83,40.16Z" style="fill:#263238"></path><path d="M230.54,39.39,233.2,41a1.48,1.48,0,0,0-.5-2.09A1.62,1.62,0,0,0,230.54,39.39Z" style="fill:#263238"></path><path d="M229.74,51.22l-5.09,1.45a2.66,2.66,0,0,0,3.52,1.74A2.49,2.49,0,0,0,229.74,51.22Z" style="fill:#9a4a4d"></path><path d="M226.71,54.51a2.79,2.79,0,0,1,2.87-2.38l.26,0a2.34,2.34,0,0,1-1.67,2.24A3.06,3.06,0,0,1,226.71,54.51Z" style="fill:#ffa8a7"></path><path d="M219.3,43.44a1.28,1.28,0,0,0,1.06,1.44,1.21,1.21,0,0,0,1.41-1,1.3,1.3,0,0,0-1.06-1.44A1.2,1.2,0,0,0,219.3,43.44Z" style="fill:#263238"></path><path d="M226.45,42.2l-.06,7.47-3.53-.75A13,13,0,0,1,226.45,42.2Z" style="fill:#b16668"></path><path d="M227.33,59.44c3.09-.32,9.67-1.66,10.91-4a7.22,7.22,0,0,1-2.66,3.34c-2,1.39-8.33,2.43-8.33,2.43Z" style="fill:#b16668"></path></g><path d="M218.15,30.34c13.66-4.59,31.94,10.57,31.39,18.29,3.05-3.35.29-14,.29-14-3.5-5.39-15.12-10.91-23.64-10.93C222.45,25.13,219.28,27.44,218.15,30.34Z" style="fill:#FF725E"></path><path d="M243.78,121a19.13,19.13,0,0,0,5.29-3.17,14.66,14.66,0,0,1-3.44,0,2.08,2.08,0,0,1-1.87-2.11c.06-.44,1.15-.21,2.89-.76,2.22-.69,3.63-1.48,6.15-1.62a4.16,4.16,0,0,0,2.38-1.41c.64-.59,3.85-6.21,6.7-12.27L250.58,86c-5.26-4.47-7-13.94-3.08-20.73,9.67,1.34,8,2.39,25.62,29.4,3,4.71,2.91,6.93-8.25,20.74a97,97,0,0,1-7.62,8.44c-6.44,6-10.85,4.89-13.8,3.83C237.77,125.63,239.39,122.8,243.78,121Z" style="fill:#f28f8f"></path><path d="M246.76,65.16c2.94,0,6.49.78,8.13,2.11s3.61,3.8,7.48,9.88S268.19,86,268.19,86a14.7,14.7,0,0,1-10.38,9.32L247.17,82.78S241.23,73.63,246.76,65.16Z" style="fill:#ebebeb"></path></g></g></g><g id="freepik--Bench--inject-2"><g id="freepik--bench--inject-2"><path d="M118.1,387a3.28,3.28,0,0,1-1.62-.43L81.61,366.42a12.37,12.37,0,0,1-6.18-10.7V315.44a3.24,3.24,0,1,1,6.47,0v40.28a5.9,5.9,0,0,0,2.94,5.09L119.72,381a3.24,3.24,0,0,1-1.62,6Z" style="fill:#263238"></path><path d="M199.32,344.94a3.43,3.43,0,0,1-1.71-.46l-37.1-21.42a13.19,13.19,0,0,1-6.57-11.39V268.84a3.44,3.44,0,1,1,6.88,0v42.83A6.3,6.3,0,0,0,164,317.1l37.1,21.42a3.44,3.44,0,0,1-1.73,6.42Z" style="fill:#263238"></path><path d="M271.13,298.74a3.24,3.24,0,0,1-1.61-.43l-34.88-20.14a12.4,12.4,0,0,1-6.18-10.71V227.19a3.24,3.24,0,1,1,6.47,0v40.27a5.92,5.92,0,0,0,2.95,5.11l34.87,20.13a3.24,3.24,0,0,1-1.62,6Z" style="fill:#263238"></path><path d="M124.14,383v46.09a1.82,1.82,0,0,1-1.08,1.5,5.74,5.74,0,0,1-5.2,0,1.82,1.82,0,0,1-1.08-1.5V383Z" style="fill:#263238"></path><path d="M93.37,365.46v46.09a1.84,1.84,0,0,1-1.07,1.5,5.74,5.74,0,0,1-5.2,0,1.84,1.84,0,0,1-1.08-1.5V365.46Z" style="fill:#263238"></path><path d="M277.05,294.69v46.09a1.84,1.84,0,0,1-1.08,1.5,5.74,5.74,0,0,1-5.2,0,1.84,1.84,0,0,1-1.08-1.5V294.69Z" style="fill:#263238"></path><path d="M246.28,277.17v46.08a1.82,1.82,0,0,1-1.07,1.51,5.8,5.8,0,0,1-5.2,0,1.84,1.84,0,0,1-1.08-1.51V277.17Z" style="fill:#263238"></path><g id="freepik--Chair--inject-2"><path d="M68.22,324.58l-.65-.37A4.15,4.15,0,0,1,65.7,321v-5.8a4.12,4.12,0,0,1,1.87-3.24l166.81-96.31a4.09,4.09,0,0,1,3.73,0l.65.37a4.15,4.15,0,0,1,1.87,3.24V225a4.14,4.14,0,0,1-1.87,3.24L72,324.58A4.09,4.09,0,0,1,68.22,324.58Z" style="fill:#455a64"></path><path d="M238.76,218.15,72,314.46a4.12,4.12,0,0,0-1.87,3.24v5.8c0,1.19.84,1.68,1.87,1.08l166.81-96.31a4.14,4.14,0,0,0,1.87-3.24v-5.8C240.63,218,239.79,217.55,238.76,218.15Z" style="fill:#37474f"></path><path d="M70.08,317.7a3.83,3.83,0,0,1,.55-1.85l-4.38-2.52a4.21,4.21,0,0,0-.34.75,3.34,3.34,0,0,0-.21,1.09V321a3.81,3.81,0,0,0,.57,1.88,3.87,3.87,0,0,0,1.3,1.36l.25.15.4.22.28.14.08,0,.26.08.17.05a2,2,0,0,0,.26.06l.19,0,.26,0h.65l.31,0,.07,0a3.77,3.77,0,0,0,.77-.19l-.27.05h0a.93.93,0,0,1-.29,0l-.09,0a.67.67,0,0,1-.18-.07l-.07,0-.16-.13-.05-.06a1,1,0,0,1-.13-.2l0-.05a1.58,1.58,0,0,1-.09-.31v0a2.48,2.48,0,0,1,0-.41Z" style="fill:#263238"></path><path d="M68.22,342.33l-.65-.37a4.15,4.15,0,0,1-1.87-3.24v-5.81a4.12,4.12,0,0,1,1.87-3.23l166.81-96.31a4.09,4.09,0,0,1,3.73,0l.65.37a4.15,4.15,0,0,1,1.87,3.24v5.8a4.15,4.15,0,0,1-1.87,3.24L72,342.33A4.15,4.15,0,0,1,68.22,342.33Z" style="fill:#455a64"></path><path d="M238.76,235.9,72,332.21a4.15,4.15,0,0,0-1.87,3.24v5.8c0,1.19.84,1.68,1.87,1.08L238.76,246a4.12,4.12,0,0,0,1.87-3.23V237C240.63,235.79,239.79,235.31,238.76,235.9Z" style="fill:#37474f"></path><path d="M70.08,335.45a3.83,3.83,0,0,1,.55-1.85l-4.38-2.53a4.66,4.66,0,0,0-.34.76,3.34,3.34,0,0,0-.21,1.09v5.8A4.14,4.14,0,0,0,67.57,342l.25.14.4.23.28.14.08,0,.26.09.17.05.26.06.19,0,.26,0h.65a1.63,1.63,0,0,0,.31,0h.07a3.23,3.23,0,0,0,.77-.2,1.31,1.31,0,0,1-.27.06h0a1.38,1.38,0,0,1-.29,0l-.09,0-.18-.07-.07,0-.16-.13-.05-.06a1.37,1.37,0,0,1-.13-.2l0-.06a1.32,1.32,0,0,1-.09-.3v0a2.48,2.48,0,0,1,0-.41Z" style="fill:#263238"></path><path d="M68.22,360.08l-.65-.37a4.15,4.15,0,0,1-1.87-3.24v-5.81a4.12,4.12,0,0,1,1.87-3.23l166.81-96.31a4.09,4.09,0,0,1,3.73,0l.65.37a4.15,4.15,0,0,1,1.87,3.24v5.8a4.15,4.15,0,0,1-1.87,3.24L72,360.08A4.15,4.15,0,0,1,68.22,360.08Z" style="fill:#455a64"></path><path d="M238.76,253.65,72,350a4.12,4.12,0,0,0-1.87,3.23V359c0,1.19.84,1.67,1.87,1.08l166.81-96.31a4.15,4.15,0,0,0,1.87-3.24v-5.8C240.63,253.53,239.79,253.05,238.76,253.65Z" style="fill:#37474f"></path><path d="M70.08,353.19a3.83,3.83,0,0,1,.55-1.84l-4.38-2.53a4.3,4.3,0,0,0-.34.76,3.23,3.23,0,0,0-.21,1.08v5.81a4.1,4.1,0,0,0,1.87,3.23l.25.15.4.22a2.44,2.44,0,0,0,.28.14l.08,0,.26.09.17.05.26.05.19,0,.26,0h.65l.31,0h.07a3.78,3.78,0,0,0,.77-.2,1.28,1.28,0,0,1-.27.05h0a1.37,1.37,0,0,1-.29,0l-.09,0-.18-.07-.07-.05-.16-.13-.05-.06a.91.91,0,0,1-.13-.19l0-.06a1.4,1.4,0,0,1-.09-.31h0a2.59,2.59,0,0,1,0-.41Z" style="fill:#263238"></path><path d="M105.14,388.53v.75a4.15,4.15,0,0,0,1.87,3.24l5,2.9a4.17,4.17,0,0,0,3.74,0l166.8-96.31a4.15,4.15,0,0,0,1.87-3.24v-.74a4.15,4.15,0,0,0-1.87-3.24l-5-2.9a4.09,4.09,0,0,0-3.73,0L107,385.3A4.12,4.12,0,0,0,105.14,388.53Z" style="fill:#455a64"></path><path d="M282.77,292c.83.6.77,1.48-.19,2l-166.8,96.31a3.83,3.83,0,0,1-1.87.45v5.06a3.83,3.83,0,0,0,1.87-.45l166.8-96.31a4.14,4.14,0,0,0,1.87-3.24v-.74A4.18,4.18,0,0,0,282.77,292Z" style="fill:#37474f"></path><path d="M112,390.36l-5-2.91c-.9-.52-1-1.32-.34-1.91a4.15,4.15,0,0,0-1.53,3v.74a4.17,4.17,0,0,0,1.14,2.65,3.27,3.27,0,0,0,.73.58l5,2.91a3.78,3.78,0,0,0,1.87.45v-5.06A3.78,3.78,0,0,1,112,390.36Z" style="fill:#263238"></path><path d="M89.8,379.68v.74a4.14,4.14,0,0,0,1.87,3.24l5,2.9a4.11,4.11,0,0,0,3.74,0l166.8-96.31a4.09,4.09,0,0,0,1.87-3.23v-.75a4.09,4.09,0,0,0-1.87-3.23l-5-2.91a4.17,4.17,0,0,0-3.74,0L91.67,376.44A4.15,4.15,0,0,0,89.8,379.68Z" style="fill:#455a64"></path><path d="M267.43,283.15c.84.61.77,1.49-.18,2.05L100.44,381.5a3.83,3.83,0,0,1-1.87.45V387a3.83,3.83,0,0,0,1.87-.45l166.81-96.31a4.14,4.14,0,0,0,1.86-3.23v-.75A4.17,4.17,0,0,0,267.43,283.15Z" style="fill:#37474f"></path><path d="M96.7,381.5l-5-2.9c-.9-.53-1-1.33-.34-1.92a4.17,4.17,0,0,0-1.53,3v.74a4.14,4.14,0,0,0,1.14,2.65,3.32,3.32,0,0,0,.73.59l5,2.9a3.8,3.8,0,0,0,1.87.45V382A3.8,3.8,0,0,1,96.7,381.5Z" style="fill:#263238"></path><path d="M74.47,370.82v.75a4.14,4.14,0,0,0,1.86,3.24l5,2.9a4.17,4.17,0,0,0,3.74,0L251.9,281.4a4.13,4.13,0,0,0,1.87-3.24v-.74a4.13,4.13,0,0,0-1.87-3.24l-5-2.9a4.11,4.11,0,0,0-3.74,0L76.33,367.59A4.11,4.11,0,0,0,74.47,370.82Z" style="fill:#455a64"></path><path d="M252.09,274.3c.84.6.77,1.48-.18,2L85.1,372.65a3.83,3.83,0,0,1-1.87.45v5.06a3.83,3.83,0,0,0,1.87-.45L251.91,281.4a4.14,4.14,0,0,0,1.87-3.24v-.74A4.16,4.16,0,0,0,252.09,274.3Z" style="fill:#37474f"></path><path d="M81.36,372.65l-5-2.91c-.9-.52-1-1.32-.34-1.91a4.15,4.15,0,0,0-1.53,3v.74a4.17,4.17,0,0,0,1.14,2.65,3.27,3.27,0,0,0,.73.58l5,2.91a3.8,3.8,0,0,0,1.87.45V373.1A3.8,3.8,0,0,1,81.36,372.65Z" style="fill:#263238"></path><path d="M88.64,364.09a.65.65,0,0,0,0,1.22,2.37,2.37,0,0,0,2.11,0c.59-.34.59-.89,0-1.22A2.31,2.31,0,0,0,88.64,364.09Z" style="fill:#263238"></path><path d="M104,373a.65.65,0,0,0,0,1.22,2.37,2.37,0,0,0,2.11,0c.59-.34.59-.89,0-1.22A2.31,2.31,0,0,0,104,373Z" style="fill:#263238"></path><path d="M119.4,381.94a.65.65,0,0,0,0,1.22,2.31,2.31,0,0,0,2.11,0,.64.64,0,0,0,0-1.22A2.39,2.39,0,0,0,119.4,381.94Z" style="fill:#263238"></path><path d="M241.55,275.85a.65.65,0,0,0,0,1.22,2.37,2.37,0,0,0,2.11,0c.59-.34.59-.89,0-1.22A2.33,2.33,0,0,0,241.55,275.85Z" style="fill:#263238"></path><path d="M256.93,284.77a.65.65,0,0,0,0,1.22,2.31,2.31,0,0,0,2.11,0,.64.64,0,0,0,0-1.22A2.39,2.39,0,0,0,256.93,284.77Z" style="fill:#263238"></path><path d="M272.31,293.7a.65.65,0,0,0,0,1.22,2.33,2.33,0,0,0,2.12,0,.65.65,0,0,0,0-1.22A2.33,2.33,0,0,0,272.31,293.7Z" style="fill:#263238"></path><path d="M165.87,320.35a.64.64,0,0,0,0,1.22,2.39,2.39,0,0,0,2.12,0,.65.65,0,0,0,0-1.22A2.31,2.31,0,0,0,165.87,320.35Z" style="fill:#263238"></path><path d="M181.25,329.27c-.59.34-.59.89,0,1.22a2.31,2.31,0,0,0,2.11,0,.65.65,0,0,0,0-1.22A2.37,2.37,0,0,0,181.25,329.27Z" style="fill:#263238"></path><path d="M196.63,338.2c-.58.34-.59.88,0,1.22a2.31,2.31,0,0,0,2.11,0c.58-.34.59-.88,0-1.22A2.31,2.31,0,0,0,196.63,338.2Z" style="fill:#263238"></path><path d="M78.66,314.05a2.68,2.68,0,0,0-1.2,2.09c0,.76.54,1.07,1.2.69a2.64,2.64,0,0,0,1.2-2.08C79.86,314,79.33,313.67,78.66,314.05Z" style="fill:#263238"></path><path d="M78.66,331.76a2.68,2.68,0,0,0-1.2,2.09c0,.76.54,1.08,1.2.69a2.62,2.62,0,0,0,1.2-2.08C79.86,331.69,79.33,331.38,78.66,331.76Z" style="fill:#263238"></path><path d="M78.66,349.48a2.65,2.65,0,0,0-1.2,2.08c0,.77.54,1.08,1.2.69a2.62,2.62,0,0,0,1.2-2.08C79.86,349.4,79.33,349.09,78.66,349.48Z" style="fill:#263238"></path><path d="M231.7,225.85a2.64,2.64,0,0,0-1.21,2.08c0,.77.54,1.08,1.21.69a2.65,2.65,0,0,0,1.2-2.08C232.9,225.77,232.36,225.46,231.7,225.85Z" style="fill:#263238"></path><path d="M231.7,243.56a2.64,2.64,0,0,0-1.21,2.08c0,.77.54,1.08,1.21.69a2.65,2.65,0,0,0,1.2-2.08C232.9,243.48,232.36,243.17,231.7,243.56Z" style="fill:#263238"></path><path d="M231.7,261.27a2.64,2.64,0,0,0-1.21,2.08c0,.77.54,1.08,1.21.7a2.68,2.68,0,0,0,1.2-2.09C232.9,261.2,232.36,260.88,231.7,261.27Z" style="fill:#263238"></path><path d="M157.29,269.61a2.65,2.65,0,0,0-1.21,2.08c0,.77.54,1.08,1.21.7a2.68,2.68,0,0,0,1.2-2.09C158.49,269.54,158,269.23,157.29,269.61Z" style="fill:#263238"></path><path d="M157.29,287.32a2.65,2.65,0,0,0-1.21,2.08c0,.77.54,1.08,1.21.7a2.68,2.68,0,0,0,1.2-2.09C158.49,287.25,158,286.94,157.29,287.32Z" style="fill:#263238"></path><path d="M157.29,305a2.67,2.67,0,0,0-1.21,2.09c0,.76.54,1.07,1.21.69a2.67,2.67,0,0,0,1.2-2.08C158.49,305,158,304.65,157.29,305Z" style="fill:#263238"></path></g></g></g><g id="freepik--character-3--inject-2"><g id="freepik--character--inject-2"><g id="freepik--bottom--inject-2"><path d="M358.41,282.48c.6-2.89,8.09-31.69,8.09-31.69l-16.12,5.07c-.88,19.08-1.79,24.88-2.1,27.71h0a2.41,2.41,0,0,0-.17.71c-.43,3.35,3.94,5.71,6.6,8.32a55.29,55.29,0,0,0,7.3,6.24c2,1.35,6.34,2,7.05.71-3.23-3.21-7-6.74-9.44-10.24C358.45,287.64,357.68,286,358.41,282.48Z" style="fill:#ffbda7"></path><path d="M375.27,304a2.91,2.91,0,0,1-1,2.8,12.43,12.43,0,0,1-9.3.69c-4.37-1.24-6.58-3-8.14-4.75s-3.81-4.08-5.69-5a21,21,0,0,1-5.9-4.12c-.51-.67,0-3.23,0-3.23Z" style="fill:#263238"></path><path d="M348.41,281.43a.77.77,0,0,0-.78.53c-.25.69-.71,2.73-1.18,3.85a16.7,16.7,0,0,0-1.27,5.49c.05,1.35,3.08,3.88,6.47,5.36a25.17,25.17,0,0,1,5.72,4.95,18.67,18.67,0,0,0,8.89,4.92c4.43.73,7.48,0,8.61-1.5,1.39-1.81.7-3.08-4-6.21-.9-.59-4-3.11-5-4-2.83-2.44-5.52-5.65-6.43-9.34a2,2,0,0,0-.58-1.18,1.62,1.62,0,0,0-1-.24,8.59,8.59,0,0,0-2.57.37c-.73.22-1.76.46-1.88,1.34a2.88,2.88,0,0,0,.06.92c0,.19.05.43-.13.51s-.34-.06-.45-.2a12.14,12.14,0,0,1-1.13-1.86,5.77,5.77,0,0,0-.68-.94c-.25-.26-2.67-1.45-2.66-1.8C348.38,282.39,348.4,281.92,348.41,281.43Z" style="fill:#37474f"></path><path d="M371.59,299.33c-6.49-.52-9.11,3.14-9.75,5.56a15.43,15.43,0,0,0,4.42,1.64c4.43.73,7.66,0,8.79-1.47C376.37,303.36,375.89,301.75,371.59,299.33Z" style="fill:#fafafa"></path><path d="M362,298a.39.39,0,0,1-.19-.1.33.33,0,0,1,0-.45,7.65,7.65,0,0,1,6.15-1.42.32.32,0,0,1-.16.62,7.1,7.1,0,0,0-5.57,1.27A.31.31,0,0,1,362,298Z" style="fill:#f0f0f0"></path><path d="M359.43,295.92a.3.3,0,0,1-.19-.1.32.32,0,0,1,0-.45,7.64,7.64,0,0,1,6.16-1.41.3.3,0,0,1,.22.38.31.31,0,0,1-.38.23,7.08,7.08,0,0,0-5.57,1.27A.31.31,0,0,1,359.43,295.92Z" style="fill:#f0f0f0"></path><path d="M357.14,293.69a.32.32,0,0,1-.19-.1.33.33,0,0,1,0-.45,7.62,7.62,0,0,1,6.15-1.41.32.32,0,1,1-.16.61,7.1,7.1,0,0,0-5.57,1.27A.29.29,0,0,1,357.14,293.69Z" style="fill:#f0f0f0"></path><path d="M354.91,291.47a.34.34,0,0,1-.19-.09.32.32,0,0,1,0-.45,7.76,7.76,0,0,1,6.69-1.37.32.32,0,0,1,.23.39.32.32,0,0,1-.39.22,7.24,7.24,0,0,0-6.1,1.22A.29.29,0,0,1,354.91,291.47Z" style="fill:#f0f0f0"></path><path d="M395.93,274.48c.3-2.94,4-35.85,4-35.85l-15.5,6.72c1.1,19.07,1.55,28.41,1.53,31.26h0a2.22,2.22,0,0,0-.1.72c-.07,3.38,4.52,5.27,7.43,7.6a55,55,0,0,0,7.91,5.45c2.13,1.14,6.51,1.34,7.09,0-3.55-2.85-7.66-6-10.45-9.2C396.51,279.61,395.57,278,395.93,274.48Z" style="fill:#ffbda7"></path><path d="M414.93,294.14a2.88,2.88,0,0,1-.67,2.88,12.43,12.43,0,0,1-9.17,1.65c-4.48-.78-6.86-2.29-8.59-3.88s-4.22-3.66-6.19-4.38a20.82,20.82,0,0,1-6.29-3.48c-.58-.61-.37-3.21-.37-3.21Z" style="fill:#263238"></path><path d="M385.88,274.47a.79.79,0,0,0-.73.61c-.17.71-.41,2.78-.76,3.95a16.58,16.58,0,0,0-.7,5.59c.19,1.34,3.46,3.55,7,4.67a25.15,25.15,0,0,1,6.21,4.32,18.53,18.53,0,0,0,9.34,4c4.48.27,7.44-.81,8.41-2.38,1.2-1.94.38-3.14-4.66-5.76-1-.5-4.29-2.68-5.42-3.47-3.07-2.13-6.07-5-7.37-8.62a7,7,0,0,1-.31-.83,1,1,0,0,0-.37-.75,1.06,1.06,0,0,0-.58-.13,11,11,0,0,0-4.39.74,1.34,1.34,0,0,0-.51.32,1.07,1.07,0,0,0-.2.65,3.11,3.11,0,0,1,0,.68.66.66,0,0,1-.4.51c-.42.14-.65-.47-.84-.73a4.94,4.94,0,0,0-.77-.87c-.27-.23-2.81-1.16-2.83-1.51C386,275.43,385.92,275,385.88,274.47Z" style="fill:#37474f"></path><path d="M410.79,289.87c-6.51.15-8.73,4.07-9.12,6.54a15.34,15.34,0,0,0,4.56,1.17c4.48.27,7.63-.8,8.6-2.37C416,293.38,415.32,291.83,410.79,289.87Z" style="fill:#fafafa"></path><path d="M401.06,289.5a.33.33,0,0,1-.2-.09.3.3,0,0,1,0-.44,7.63,7.63,0,0,1,6-2.05.32.32,0,0,1,.27.36.33.33,0,0,1-.36.27,7.09,7.09,0,0,0-5.41,1.84A.34.34,0,0,1,401.06,289.5Z" style="fill:#f0f0f0"></path><path d="M398.34,287.74a.31.31,0,0,1-.22-.53,7.6,7.6,0,0,1,6-2,.33.33,0,0,1,.27.37.31.31,0,0,1-.36.26,7.08,7.08,0,0,0-5.41,1.84A.32.32,0,0,1,398.34,287.74Z" style="fill:#f0f0f0"></path><path d="M395.83,285.76a.27.27,0,0,1-.19-.08.33.33,0,0,1,0-.45,7.67,7.67,0,0,1,6-2,.31.31,0,1,1-.1.62,7.05,7.05,0,0,0-5.4,1.85A.32.32,0,0,1,395.83,285.76Z" style="fill:#f0f0f0"></path><path d="M393.38,283.79a.33.33,0,0,1-.19-.08.32.32,0,0,1,0-.45,7.77,7.77,0,0,1,6.51-2.05.31.31,0,1,1-.09.62,7.23,7.23,0,0,0-5.94,1.85A.38.38,0,0,1,393.38,283.79Z" style="fill:#f0f0f0"></path><path d="M399.47,155.42l-34.71-.36-1.55-2.18a44.14,44.14,0,0,0-7.29,18.8c-1.76,11.58-1,21-1,32.11,0,12.08-1.22,28.88-1.22,28.88a48.37,48.37,0,0,0-3.62,15.67c-.24,6.75-1.56,23.56-1.56,23.56s6.38,3,12.17,1.2c0,0,4.66-14.51,8.42-29.67,1.6-6.46,2.81-9.18,5.26-20.28,1.48-6.69,3.7-16.38,5.61-24.69l4.43,23.46a110.88,110.88,0,0,0-.8,16.31C384,245,385,265,385,265s6.65,2.33,12.23-.07c0,0,4.47-34.26,5-42.36C402.41,199.19,402.11,176.76,399.47,155.42Z" style="fill:#FF725E"></path><path d="M399.47,155.42l-34.71-.36-1.55-2.18a44.14,44.14,0,0,0-7.29,18.8c-1.76,11.58-1,21-1,32.11,0,12.08-1.22,28.88-1.22,28.88a48.37,48.37,0,0,0-3.62,15.67c-.24,6.75-1.56,23.56-1.56,23.56s6.38,3,12.17,1.2c0,0,4.66-14.51,8.42-29.67,1.6-6.46,2.81-9.18,5.26-20.28,1.48-6.69,3.7-16.38,5.61-24.69l4.43,23.46a110.88,110.88,0,0,0-.8,16.31C384,245,385,265,385,265s6.65,2.33,12.23-.07c0,0,4.47-34.26,5-42.36C402.41,199.19,402.11,176.76,399.47,155.42Z" style="fill:#fff;opacity:0.6000000000000001"></path><path d="M348.75,267.5c2.53,1.5,9.9,3,13.3,1.79l-1,3.93s-1.56,1.21-6.25.74-6.35-2-6.35-2Z" style="fill:#455a64"></path><path d="M384.6,260.47c2.67,1.22,10.12,2.1,13.37.5l-.53,4s-1.31,1.4-6,1.41-6.63-1.31-6.63-1.31Z" style="fill:#455a64"></path><path d="M380,198.46l3.84-16.85s9.51-4,13.78-9.56a22.94,22.94,0,0,1-11.14,11.89l-4.4,15.23,2.35,22.75Z" style="opacity:0.1"></path></g><g id="freepik--top--inject-2"><g id="freepik--arm--inject-2"><path d="M389.77,107.21c7.74.25,8.92,1.46,11.62,5.93,2.39,4,9.93,22.56,11.31,25.78s-9.55,7.83-9.55,7.83c-3.74-7-10.38-20.76-10.38-20.76Z" style="fill:#ffbda7"></path><path d="M389.66,107.08c3.52-.08,6.57.27,8.43,1.68s2.8,2.87,4.69,6.52S410,131.13,410,131.13s-2,6.36-11.77,7.52l-8.52-14.91Z" style="fill:#ebebeb"></path></g><g id="freepik--chest--inject-2"><path d="M399.6,135.67c-.08,1.88-.64,11.08-.64,11.08l2.1,19.28c-9.64,9.58-34.78,7.95-44-.26,2.58-10.74,7.3-16.15,7-19.26l-4.43-16.72A39.79,39.79,0,0,0,363,109l11.95-1.78,9.52-.16h5.22a115,115,0,0,1,9.81,11.48C403.81,124.63,404.63,130.35,399.6,135.67Z" style="fill:#f5f5f5"></path><text transform="matrix(0.96, -0.15, 0.14, 0.99, 373.32, 128.71)" style="font-size:4.5189900398254395px;fill:#455a64;font-family:Rubik-Bold, Rubik;font-weight:700"><tspan style="letter-spacing:-0.023173036341979703em">V</tspan><tspan x="3.04" y="0" style="letter-spacing:0.00022281765713442022em">O</tspan><tspan x="6.29" y="0" style="letter-spacing:-0.014037512399468472em">L</tspan><tspan x="8.95" y="0">UNTEER</tspan></text><path d="M389,133.43c-3.76-4.5-10-.73-7.06,4,2.72,4.44,8.41,6.67,8.41,6.67s5.28-3.39,6.13-9.15S390.53,128.36,389,133.43Z" style="fill:#FF725E"></path></g><g id="freepik--head--inject-2"><path d="M372.14,102.59c-2.51-4.13-3.65-4.1-6.64-7.34-4.17-4.51-6.6-13.46-.34-19.33a11.31,11.31,0,0,1,7.16-8.78,22.58,22.58,0,0,1,12.61-.94,12,12,0,0,1,8.35,6.11c1.41,2.53,1.58,4,1.92,6.87a12.78,12.78,0,0,1-.52,5.33c-2.42,5-6.74,5.72-8.84,7.26l-12.33,9C373.43,100.83,372.15,102.61,372.14,102.59Z" style="fill:#263238"></path><path d="M366.56,75.82a6.23,6.23,0,0,0-2.88-2,10.06,10.06,0,0,0-10.62,2.68c-2.33,2.59-3.12,6.24-3.2,9.73s.46,7,.38,10.45c-.08,3.09-3.56,5.26-5.89,6.75-.43.28-.91.69-.77,1.18a1.15,1.15,0,0,0,.72.62,9.84,9.84,0,0,0,10.38-2c-.06.86-.13,1.72-.2,2.58a4.73,4.73,0,0,0,3.58-2,9.67,9.67,0,0,0,1.57-3.92c1-4.65,0-9.26.38-13.9.42-5.22,2.61-8.92,5.85-8,1.32.38,2,0,1.27-1.28A7.27,7.27,0,0,0,366.56,75.82Z" style="fill:#263238"></path><path d="M366,88.05a2.64,2.64,0,0,1,4.26-.16c.39.5.65,1.1,1,1.6a2,2,0,0,0,1.59.92,1.44,1.44,0,0,0,1.22-.69,4.76,4.76,0,0,0,.3-1.81c.87-8.58,4.82-15,12.33-10.64,3-2.91,4.52-2.4,5.61-1.61,2.08,1.52,3.28,3.69,3.27,12.56s-3,13-4.46,13.83-3.09,1.16-6,1v4.89s2.29,7.78.45,12.44a30.15,30.15,0,0,1-7.41-4.72c-5.38-4.67-6-7.83-6-7.83V95.13a3.48,3.48,0,0,1-4.06.26C365.28,93.87,364.29,90.14,366,88.05Z" style="fill:#ffbda7"></path><path d="M371.2,93.75a1.25,1.25,0,0,1-2.49,0,1.25,1.25,0,1,1,2.49,0Z" style="fill:#455a64"></path><path d="M383.1,86.84a1.35,1.35,0,0,1-1.1,1.5,1.26,1.26,0,0,1-1.47-1.06,1.34,1.34,0,0,1,1.1-1.5A1.26,1.26,0,0,1,383.1,86.84Z" style="fill:#263238"></path><path d="M393.54,84.34l-2.87-1.16a1.48,1.48,0,0,1,2-.89A1.62,1.62,0,0,1,393.54,84.34Z" style="fill:#263238"></path><path d="M381.17,82.84l-2.71,1.51a1.49,1.49,0,0,1,.54-2.09A1.63,1.63,0,0,1,381.17,82.84Z" style="fill:#263238"></path><path d="M382.42,94.7l5.12,1.47A2.67,2.67,0,0,1,384,97.91,2.49,2.49,0,0,1,382.42,94.7Z" style="fill:#b16668"></path><path d="M385.46,98a2.78,2.78,0,0,0-2.89-2.4,2.17,2.17,0,0,0-.25,0A2.34,2.34,0,0,0,384,97.91,2.94,2.94,0,0,0,385.46,98Z" style="fill:#f28f8f"></path><path d="M392.76,86.27a1.29,1.29,0,0,1-1.07,1.45,1.22,1.22,0,0,1-1.42-1,1.3,1.3,0,0,1,1.07-1.45A1.22,1.22,0,0,1,392.76,86.27Z" style="fill:#263238"></path><polygon points="386.09 84.16 386.48 93 390.94 91.91 386.09 84.16" style="fill:#f0997a"></polygon><path d="M385.07,103c-3.12-.32-10-1.73-11.22-4.1a7.32,7.32,0,0,0,2.68,3.36c2.05,1.4,8.54,2.45,8.54,2.45Z" style="fill:#f0997a"></path></g><g id="freepik--Cap--inject-2"><path d="M395.2,79.18l-.11,0c-6.7-1.63-14.9-.41-21.68,2.81l-.67.32h0c-5.7,2.56-9.93,6-10.66,7.27A19.25,19.25,0,0,1,360.85,85c-1.13-9.15.48-15.35,14.64-19.06,9.85-2.58,17.28,2,18.89,8.14C394.73,75.39,394.9,77.8,395.2,79.18Z" style="fill:#FF725E"></path><path d="M372.59,81a18.55,18.55,0,0,1,7.24-6.8c3.38-1.93,10.4-2.21,13.55-2.25,5.51-.06,6.86,1.08,7,1.89,0,.19.12,1.08.15,1.28a.85.85,0,0,1-.1.53c-.79,1.27-5.19,3.56-5.19,3.56-6.94-1.72-15.52-.38-22.45,3.1Z" style="fill:#FF725E"></path><path d="M372.59,81a18.55,18.55,0,0,1,7.24-6.8c3.38-1.93,10.4-2.21,13.55-2.25,5.51-.06,6.86,1.08,7,1.89,0,.19.12,1.08.15,1.28a.85.85,0,0,1-.1.53c-.79,1.27-5.19,3.56-5.19,3.56-6.94-1.72-15.52-.38-22.45,3.1Z" style="opacity:0.15"></path><path d="M372.75,82.28c6.93-3.48,15.51-4.82,22.45-3.1,0,0,4.4-2.29,5.19-3.56.42-.71,0-2.47-6.85-2.39-3.15,0-10.17.32-13.54,2.24A18.78,18.78,0,0,0,372.75,82.28Z" style="fill:#FF725E"></path><path d="M372.75,82.28c6.93-3.48,15.51-4.82,22.45-3.1,0,0,4.4-2.29,5.19-3.56.42-.71,0-2.47-6.85-2.39-3.15,0-10.17.32-13.54,2.24A18.78,18.78,0,0,0,372.75,82.28Z" style="opacity:0.30000000000000004"></path></g><path id="freepik--arm--inject-2" d="M412.18,137.74c2.52,6.36,3.16,6.74,2,12.36-1.09,5.12-3,11.77-4.22,18.76-.39,2.28.91,4.07-1.58,8.33-1.09,1.87-8.68-2-7.74-5.76,1.3-1.42,1.12-9.28,1.71-15.29.51-5.16.83-9.39.83-9.39Z" style="fill:#ffbda7"></path><g id="freepik--Garbage--inject-2"><path d="M396.56,178.14c-.69,5.06-6,17.13-16.21,16.79s-11.28-3.58-11.28-3.58-2.87,11.57,8.82,16.35c5.67,2.31,28.47,2.76,31-8.63s-.64-14.65-.64-14.65a4,4,0,0,1-5.23,2.31c-4-1.23-5.12-5.6-4.43-8.59Z" style="fill:#37474f"></path><path d="M406.53,191.75a30.91,30.91,0,0,0-3.69-3.37,3.8,3.8,0,0,0-2.55-.71,8.14,8.14,0,0,0-3,1.5,3,3,0,0,1-3.15.37,5.55,5.55,0,0,0-1.05-.77c-.7-.25-1.5.26-2.2,0-.88-.32-1-1.54-1.64-2.18s-2.18-.45-3.05.24a31.74,31.74,0,0,0-2.41,2.67,4,4,0,0,1-2.29.8c-1.38.21-3.11.35-3,2.17.07,1.12.57,1.69-.91,2.49s-3.6.36-5.12,1.19a4.68,4.68,0,0,0-1.69,1.91,27.91,27.91,0,0,0-1.38,2.58,9.09,9.09,0,0,0-.31,7.17c.42,1,1.12,2.5,2.48,2.84,1.83.46,3.55,0,5.21,1.08.67.43,1.16,1,1.81,1.45a7.87,7.87,0,0,0,4.37,1.15c1.26,0,2.47-.36,3.7-.38a11.37,11.37,0,0,1,2.43.43c1.82.34,4.1.33,5.46-.83,1-.83,1.33-2.15,2.61-2.67s3,.1,4.47.07a5.15,5.15,0,0,0,4.83-4c.4-2-.25-4-.56-6-.42-2.64,2-4.59,1.89-7A3.51,3.51,0,0,0,406.53,191.75Z" style="fill:#fafafa"></path><path d="M406.53,191.75c-.46-.45-1-.89-1.48-1.35-.14-.13-.46,1.67-.47,1.71a4.92,4.92,0,0,1-1.14,2.12,16.28,16.28,0,0,0-2.2,2.72,6.47,6.47,0,0,1-.88,1.59,1.9,1.9,0,0,1-3.28-1.3,2.07,2.07,0,0,0-2.37.66,8.22,8.22,0,0,1-1.91,1.82c-.95.47-2.21.29-3,1-.35.33-.6.83-1.07.89s-.85-.38-1.1-.79a10,10,0,0,1-1.07-2.55,8.1,8.1,0,0,0-.48-1.54,1.54,1.54,0,0,0-2.81-.19,12.7,12.7,0,0,0-.91,1.66c-1,1.83-2.91,3-4.72,4a1.86,1.86,0,0,1-1.09.35,1.52,1.52,0,0,1-1-.74,5.36,5.36,0,0,1-1-2.64,2.34,2.34,0,0,0-.25-1.15,2,2,0,0,0-1.64-.63,3.44,3.44,0,0,0-1.36.09c-.95.33-1.51,2.26-1.9,3.12a9.09,9.09,0,0,0-.31,7.17c.42,1,1.12,2.5,2.48,2.84,1.83.46,3.55,0,5.21,1.08.67.43,1.16,1,1.81,1.45a7.87,7.87,0,0,0,4.37,1.15c1.26,0,2.47-.36,3.7-.38a11.37,11.37,0,0,1,2.43.43c1.82.34,4.1.33,5.46-.83,1-.83,1.33-2.15,2.61-2.67s3,.1,4.47.07a5.15,5.15,0,0,0,4.83-4c.4-2-.25-4-.56-6-.42-2.64,2-4.59,1.89-7A3.51,3.51,0,0,0,406.53,191.75Z" style="fill:#ebebeb"></path><path d="M378.23,197.64a1.35,1.35,0,0,1,.32,1.34,3.23,3.23,0,0,0-.24.7.52.52,0,0,0,.41.58,1.17,1.17,0,0,0,.7-.16,3.34,3.34,0,0,1,1.92-.32c.65.13,1.22.63,1.1,1.15a1.76,1.76,0,0,0,0-2.12,2.06,2.06,0,0,0-2.45-.42c.27-.57-.23-1.25-.95-1.49A3.31,3.31,0,0,0,377,197,2.74,2.74,0,0,1,378.23,197.64Z" style="fill:#ebebeb"></path><path d="M387.64,192.89c-.24.13-.51.21-.73.35a.58.58,0,0,0-.34.59,1.44,1.44,0,0,1,1.24.61,2.49,2.49,0,0,0,1,.91,8.36,8.36,0,0,1,1.17.33c.49.29.41.88.27,1.36l2.42-1.28a1.73,1.73,0,0,0,.39-.25.71.71,0,0,0-.25-1.06,2.81,2.81,0,0,0-1.4-.37,9.39,9.39,0,0,1-1.5-.12c-.12,0-.25-.08-.29-.17s.18-.28.37-.33l2.32-.7c.16-.09.12-.3,0-.41a1.36,1.36,0,0,0-.55-.16,42.15,42.15,0,0,0-4.46-.57C387.32,192.11,388.81,192.26,387.64,192.89Z" style="fill:#ebebeb"></path><path d="M395.18,191.72a.66.66,0,0,0-.54.16.76.76,0,0,0,.1,1,2.88,2.88,0,0,0,1,.55c.72.3.57.77.92,1.28a9,9,0,0,0,2,1.57.63.63,0,0,0,.4.17c.17,0,.3-.18.38-.34a2,2,0,0,0,0-1.66.85.85,0,0,1-.11-.48c.08-.27.44-.32.72-.31l1.41,0c.36,0,.78,0,1-.33a.69.69,0,0,0-.22-.85,5.06,5.06,0,0,0-3.59-.5,3.66,3.66,0,0,1-2.28.22c-.29-.12-.54-.33-.83-.45A1.06,1.06,0,0,0,395.18,191.72Z" style="fill:#ebebeb"></path><path d="M400.79,172a3.93,3.93,0,0,0-3.87,1.85c-.54,1-1.42,4.07-1,5.18s3.42,2.52,5.13,2.89,4.67.81,6.15-1.11a11.3,11.3,0,0,0,1.72-5.11S405.72,171.79,400.79,172Z" style="fill:#f0997a"></path><path d="M416.62,209.31c-1.7-3.78-3.51-13.31-4-17.42s-.95-15-4.84-18.12a8.78,8.78,0,0,0-7.78-1.84,10.7,10.7,0,0,1,6,2.4c3.82,3.12,2.7,14-.84,20s-8.87,7.33-13,5-5.6-10.49-7.37-14.77-5.9-5.35-10.78-6.5c-7.41.06-7.09,11.65-7.8,20s-3.78,7.58-5.91,20.55c-1.23,7.5,1.68,19.15.65,29.95s-.86,18.84,14.37,26.86c8.58,4.52,26.72,4.43,38.14-2.23s6.52-21.69,8.44-31.79C425.39,223.19,418.32,213.09,416.62,209.31ZM383.5,199c-2.48,3.61-9.94,3.44-12.56-2.42-1-2.16-.64-12.77,1.32-13.84s5.14.26,8.91,2.13C383.62,186.48,384.91,197,383.5,199Z" style="fill:#455a64"></path><path d="M413.49,273.3a14.57,14.57,0,0,0,6.87-9.09c-6.37,9.36-24.08,13.44-37.55,9.46S366,257.5,367.41,247.35s-2.46-19.85-4-25.43,2-14.72,2.49-21h0c-1.09,5.64-3.67,6.43-5.53,17.78-1.23,7.5,1.68,19.15.65,29.95s-.86,18.84,14.37,26.86C383.93,280,402.07,280,413.49,273.3Z" style="fill:#37474f"></path><path d="M414.77,221.43h-2.62c-1.27-6.86-6-7.94-11.81-6.66,2.8.17,6.35,3.1,6.8,6.67h-2.61a.7.7,0,0,0-.61,1l4.14,5.81a.57.57,0,0,0,.87,0l6.11-5.85C415.45,222.05,415.28,221.43,414.77,221.43Z" style="fill:#FF725E"></path><path d="M404.49,218.37a7.9,7.9,0,0,0-5.35-3.24,13.58,13.58,0,0,0-7.81,8.3S396.56,217.35,404.49,218.37Z" style="fill:#FF725E"></path><path d="M404.49,218.37a7.9,7.9,0,0,0-5.35-3.24,13.58,13.58,0,0,0-7.81,8.3S396.56,217.35,404.49,218.37Z" style="opacity:0.25"></path><path d="M389.12,225.79l.91,2.33c-5.5,5.62-4.79,10.52-1.66,14.89-.82-2.61.48-7.68,3.41-10.42l.92,2.32c.18.46.85.39,1.09-.12l3.6-7.49a.53.53,0,0,0-.3-.78l-7.19-1.63A.71.71,0,0,0,389.12,225.79Z" style="fill:#FF725E"></path><path d="M390,237c-1.12,2.46-1.49,5.2-1,6.9,0,0,3.65,3.83,9.9,1.56A10.81,10.81,0,0,1,390,237Z" style="fill:#FF725E"></path><path d="M390,237c-1.12,2.46-1.49,5.2-1,6.9,0,0,3.65,3.83,9.9,1.56A10.81,10.81,0,0,1,390,237Z" style="opacity:0.25"></path><path d="M401.8,245.85l1.7-2.34c6.78,1.24,10.78-2.59,13.48-8.24-2,2.44-6.83,4.59-10.22,3.76l1.7-2.33c.33-.46,0-1-.48-.9l-7.74,1.67a.74.74,0,0,0-.57.79l1.08,7.48C400.82,246.24,401.47,246.31,401.8,245.85Z" style="fill:#FF725E"></path><path d="M411.16,237.73a12.19,12.19,0,0,0,6.3-3.65s2.05-5.76-2.09-9.86C415.37,224.22,417.22,231,411.16,237.73Z" style="fill:#FF725E"></path><path d="M411.16,237.73a12.19,12.19,0,0,0,6.3-3.65s2.05-5.76-2.09-9.86C415.37,224.22,417.22,231,411.16,237.73Z" style="opacity:0.25"></path><path d="M407.79,177.12l1-2.24a5.79,5.79,0,0,0-1-1.11l-.59-.43-1,1.18A6.07,6.07,0,0,1,407.79,177.12Z" style="fill:#37474f"></path><path d="M367.41,186a17.08,17.08,0,0,0,3.19,2.06,12.26,12.26,0,0,1,1.23-4.9L369.12,181A15.8,15.8,0,0,0,367.41,186Z" style="fill:#37474f"></path><path d="M406.56,169.23c-2.35,1.57-3.4,5.6-4.24,7.1s-1.69,2.51-1,3.1,3.09-.09,4.17-1.59a49.32,49.32,0,0,1,3.81-4.21Z" style="fill:#ffbda7"></path></g><g id="freepik--arm--inject-2"><path d="M363,109c-6.83,1.19-8.93,4.27-10.4,11.35s-5.09,20.09-6.22,27.27c-.35,2.25-1.17,3.65,1.09,8,4.34,8.39,13.57,21.62,16.65,24.9,3.76,4,6.59,6.69,10.59,6.9s6.1-.65,6.49-2.55c0,0-6.42-2.81-7.32-6.59a36.1,36.1,0,0,1,5.51,2.13c3.09,1.44,4.27-.34,3.81-.74-1.48-.87-1.83-2.12-5.68-4.64-5-3.26-7-2.87-8.78-5.37-4.12-5.65-8.79-19.51-8.79-19.51l5.4-20.76A24,24,0,0,0,363,109Z" style="fill:#ffbda7"></path><path d="M363.67,108.91a10.62,10.62,0,0,0-9.77,5.67c-1.09,2.46-5.35,20.78-5.35,20.78s3.8,4.93,14.74,4.56l4.14-15.49S369,114.42,363.67,108.91Z" style="fill:#ebebeb"></path></g></g></g></g><g id="freepik--character-2--inject-2"><g id="freepik--character--inject-2"><g id="freepik--bottom--inject-2"><path d="M327.78,425.93c1.68.89,5.23.64,8.12-1.26s3.58-6.2,2.53-9.33c-1.26-3.79-3.49-5.64-4.33-7.91s-.79-5.59-1.85-7.57a6.06,6.06,0,0,0-4.06-3,3.64,3.64,0,0,0-3.14.74l-.84.67Z" style="fill:#263238"></path><path d="M322.2,414.18l3.25,4.29s-.78,5.37.28,6.62c1.56,1.84,3.84,1.88,7.42.19,4.1-1.93,4.55-6,3.9-8.95-.92-4.25-5.37-6.91-5.51-11.11s-2.88-9.58-8.07-6.53a30,30,0,0,0-6.86,5.89Z" style="fill:#455a64"></path><path d="M325.45,418.47a10.92,10.92,0,0,1,4.85-1.85.79.79,0,0,0,.68-1.14v0a.82.82,0,0,0-.77-.44c-1.18.08-4,.46-5.65,2.27C324.21,418.39,325.45,418.47,325.45,418.47Z" style="fill:#FF725E"></path><path d="M323.47,415.85a10.73,10.73,0,0,1,4.75-2.09.8.8,0,0,0,.62-1.18v0a.79.79,0,0,0-.78-.4c-1.18.14-4,.66-5.53,2.56C322.23,415.84,323.47,415.85,323.47,415.85Z" style="fill:#FF725E"></path><path d="M271.13,424.51,260,421.05c.17-2.48-1.54-6.64-3.21-10.75l11.79-5.52,2.5,12.82Z" style="fill:#ffa8a7"></path><path d="M242.13,433.35a3.28,3.28,0,0,0,.14,2.37c.33.69,3.94,2.73,8.82,2.4a20.34,20.34,0,0,0,10.09-3.52c1.85-1.24,3.79-1.47,6.21-1.6s5.58-1.35,6.11-2.48a5.33,5.33,0,0,0-.08-3.07Z" style="fill:#263238"></path><path d="M261.44,419a5.37,5.37,0,0,1-1.68-1.14.58.58,0,0,0-.34-.22.38.38,0,0,0-.35.2,1.12,1.12,0,0,0-.14.4,17.23,17.23,0,0,1-.61,2.24,7.05,7.05,0,0,1-.41,1.08,2.59,2.59,0,0,1-.68.68,22.9,22.9,0,0,1-3.8,2.43c-1.6.85-3.16,1.52-4.8,2.26s-3.91,1.21-5.22,2.1c-1.92,1.29-2.16,4.53,0,5.81,1.88,1.1,6.83,2.3,12,.83,2.83-.8,6-3.82,9.68-4.11,2.36-.19,6.82-.85,8.34-2.64.56-.8-.19-3.32-.8-5.49-.67-2.38-.91-6.71-1.7-6.5,0,0,.2.74-.1,1.05s-1.4,1-1.71,1.23a6.18,6.18,0,0,0-1.31,1.87,1.37,1.37,0,0,1-.67.73c-.23.09-.38-.07-.62-.07a1.14,1.14,0,0,0-.6.18,7.32,7.32,0,0,1-.86.55c-.18.08-.42.1-.53-.05a.45.45,0,0,1-.05-.36c.06-.34.19-.66.26-1a1.48,1.48,0,0,0-.11-1,1.35,1.35,0,0,0-.81-.54,8,8,0,0,0-1-.13A5.4,5.4,0,0,1,261.44,419Z" style="fill:#455a64"></path><path d="M255.63,423.4a2.19,2.19,0,0,1,1.74-1.16c1.08-.2,3,.59,4.15,1.56a.89.89,0,0,1-.12,1.46h0a.88.88,0,0,1-1-.12A6.77,6.77,0,0,0,255.63,423.4Z" style="fill:#FF725E"></path><path d="M252.3,425.27a2.54,2.54,0,0,1,2.07-1.07,7.85,7.85,0,0,1,4.54,1.7.87.87,0,0,1-.12,1.41h0a.85.85,0,0,1-1-.11A6.73,6.73,0,0,0,252.3,425.27Z" style="fill:#FF725E"></path><path d="M248.63,427a2.82,2.82,0,0,1,2.14-1,7.49,7.49,0,0,1,4.35,1.71.87.87,0,0,1-.12,1.41h0a.85.85,0,0,1-1-.11A6.41,6.41,0,0,0,248.63,427Z" style="fill:#FF725E"></path><path d="M316.61,372c.95,3.93,1.55,11.68-.09,17.6s-7.12,15.8-7.12,15.8l10.79-4.89s2.54-.1,4.86,3.48,0,9,0,9-13.17,10.33-23.35,16.46-15.33,6.58-21.9,3.55c-3.77-1.74-4-8.17-2.08-14.88s9.43-28,9.43-28l-19.91,2,3.12,19.6s-3.13,5.7-12.31,3.76c0,0-11.42-24.34-13.34-30.94s-.74-11.77,6.4-13.38c7.38-1.65,27.81-3.92,27.81-3.92Z" style="fill:#FF725E"></path><path d="M316.61,372c.95,3.93,1.55,11.68-.09,17.6s-7.12,15.8-7.12,15.8l10.79-4.89s2.54-.1,4.86,3.48,0,9,0,9-13.17,10.33-23.35,16.46-15.33,6.58-21.9,3.55c-3.77-1.74-4-8.17-2.08-14.88s9.43-28,9.43-28l-19.91,2,3.12,19.6s-3.13,5.7-12.31,3.76c0,0-11.42-24.34-13.34-30.94s-.74-11.77,6.4-13.38c7.38-1.65,27.81-3.92,27.81-3.92Z" style="opacity:0.5"></path><path d="M257.63,415.85a12.75,12.75,0,0,0,7.64,0c4.51-1.25,5.31-4.13,5.31-4.13l-.69-5.08a11.78,11.78,0,0,1-6.25,3.74,23.81,23.81,0,0,1-7.88.69Z" style="fill:#37474f"></path><path d="M287.18,390.08l1.05-2.9s-4.42-4-6.08-8.6c0,0,2.08,6.31,4.62,9.86l-9.7,2.67Z" style="opacity:0.15"></path><path d="M308.77,413.72c4.61-5.91,14.46-11.77,14.5-11.79-1.92-1.64-3.08-1.44-3.08-1.44l-10.79,4.89s-6.53,14.13-11.85,16.28A25.23,25.23,0,0,0,308.77,413.72Z" style="opacity:0.15"></path><path d="M315.77,402.44c2.81.53,6.92,8.7,5.83,13.41l3.73-2.63s2.27-5.05.38-8.8a7.47,7.47,0,0,0-5.51-4.16Z" style="fill:#37474f"></path><path d="M267.27,392.1c-1-3.37-2.55-6.48-7.09-8.33,0,0,5.82,1.12,8.64,8.18Z" style="opacity:0.15"></path></g><g id="freepik--top--inject-2"><path d="M278.25,320.63c-2.89-.26-6.71.92-9.07,8.2s-12.61,28.48-12.61,28.48l-34.23,2.21,5.39,10.12a6.27,6.27,0,0,0,3.67-.68,5.05,5.05,0,0,1,2.76-.47c7.78.74,14,3.33,16.61,3.56,7.46.65,7.91-.2,10.15-3.57s15.53-19.13,15.53-19.13Z" style="fill:#ffa8a7"></path><path d="M278.46,318.42a19.43,19.43,0,0,0-5.76,2.79c-2.74,1.75-4.58,5.33-6.25,9.42-2,4.79-8.82,22.88-8.82,22.88a18.66,18.66,0,0,0,13.65,6.7l13.24-26Z" style="fill:#ebebeb"></path><g id="freepik--Brush--inject-2"><path d="M218.51,352.54l7.29,15.71a1.1,1.1,0,0,0,1,.56,3.56,3.56,0,0,0,2.92-1.35,1.12,1.12,0,0,0,.22-1.12l-7.29-15.72Z" style="fill:#263238"></path><polygon points="224.52 354.67 221.49 358.96 218.51 352.54 222.65 350.62 224.52 354.67" style="opacity:0.15"></polygon><path d="M218.88,337.06l1.49,3.19,2-2.88,3.06,6.57a7.52,7.52,0,0,1-.6,6.82l-3.57,5.06a2.47,2.47,0,0,1-2,1.24c-.07,0-3.09-.25-3.75-.34a2.42,2.42,0,0,1-1.73-1.57l-3.06-6.57Z" style="fill:#37474f"></path><path d="M221.28,355.82l3.57-5.06a7.52,7.52,0,0,0,.6-6.82l-3.06-6.57-8.11,11.53,3.06,6.57C218.26,357.45,220,357.61,221.28,355.82Z" style="fill:#455a64"></path><polygon points="214.28 348.9 222.39 337.37 217.95 327.78 209.83 339.31 214.28 348.9" style="fill:#f0f0f0"></polygon><polygon points="214.28 348.9 209.83 339.31 206.32 338.99 210.77 348.58 214.28 348.9" style="fill:#ebebeb"></polygon><polygon points="215.61 351.75 223.72 340.22 224.33 341.53 216.25 353.12 215.61 351.75" style="fill:#fafafa"></polygon><polygon points="215.61 351.75 212.1 351.43 212.74 352.81 216.25 353.12 215.61 351.75" style="fill:#e6e6e6"></polygon><path d="M207.68,341.92s2,1.86,3.89,1.12l-1.74-3.73-3.51-.32Z" style="fill:#FF725E"></path><path d="M207.68,341.92s2,1.86,3.89,1.12l-1.74-3.73-3.51-.32Z" style="fill:#FF725E"></path><path d="M211.57,343a4.36,4.36,0,0,0,3.56-2.19c.87-1.59-.28-5.24,2.22-6.49,1.77-.87,3.85.44,3.85.44l-3.25-7-8.12,11.53Z" style="fill:#FF725E"></path><path d="M211.57,343a4.36,4.36,0,0,0,3.56-2.19c.87-1.59-.28-5.24,2.22-6.49,1.77-.87,3.85.44,3.85.44l-3.25-7-8.12,11.53Z" style="fill:#fff;opacity:0.6000000000000001"></path><polygon points="217.95 327.78 214.44 327.46 206.32 338.99 209.83 339.31 217.95 327.78" style="fill:#FF725E"></polygon><polygon points="217.95 327.78 214.44 327.46 206.32 338.99 209.83 339.31 217.95 327.78" style="fill:#fff;opacity:0.7000000000000001"></polygon></g><path d="M220.73,357.32c-1.69.77-3.8,2.82-3.86,3.59s2.5,7.84,3.72,8.93,6.1,2,7.38,1.35,1-2.19,1.29-4-2.25-4.06-3.92-5-3.13-1.74-3.13-1.74l-1.48-3.2Z" style="fill:#f28f8f"></path><path d="M233.27,358.82c-3.73-.31-4-1.4-5.42-2.21a5.12,5.12,0,0,0-2.75-.7l.9,1.95c-.12.92-.53,2.82-2.22,3.23s-3,.81-3.64,1.69-.65,1.9,0,2.24,3.33-.27,5.18-.31C229.56,364.63,233.27,358.82,233.27,358.82Z" style="fill:#ffa8a7"></path><path d="M309.62,330.17c3.18,12,7.3,43.55,7.3,43.55-5.21,6-29.26,5.78-39.1-6.5-1.15-9.7-2.79-15.3-4.92-32.67-.93-7.66.76-14.44,8-17.33l12.48-.64,8.72.16C306.84,319.3,308.42,325.66,309.62,330.17Z" style="fill:#f5f5f5"></path><text transform="matrix(0.97, 0.03, -0.04, 1, 275.23, 339.62)" style="font-size:4.289569854736328px;fill:#455a64;font-family:Rubik-Bold, Rubik;font-weight:700"><tspan style="letter-spacing:-0.023003997865482625em">V</tspan><tspan x="2.89" y="0">O</tspan><tspan x="5.97" y="0" style="letter-spacing:-0.01408408032580569em">L</tspan><tspan x="8.49" y="0">UNTEER</tspan></text><path d="M287.72,345.57c2.67-5.21,9.55-2.9,7.76,2.37-1.67,4.93-6.73,8.35-6.73,8.35s-5.9-2.14-8-7.58S285.06,341,287.72,345.57Z" style="fill:#FF725E"></path><path d="M296.78,296.53s-1.15,8.86-1.78,10.35a4,4,0,0,1-2.13,2l-.36-6.14Z" style="fill:#263238"></path><path d="M266,287.71c-1.05,2.75-.44,8,3.08,10.66,4.48,3.34,2.39-11.36,2.39-11.36A5.71,5.71,0,0,0,266,287.71Z" style="fill:#263238"></path><path d="M293.45,284.24a4.3,4.3,0,0,1,3.66,1c1.65,1.44,1.19,6.39-.33,11.33l-3.46.68Z" style="fill:#263238"></path><path d="M292.28,297.3c.73.36,1.62-1.07,2.41-2s3.51-2.43,5.16.42-.68,7.11-2.84,8c-3.73,1.51-4.5-.9-4.5-.9l.82,13.82c-3,3.95-14.86,7.76-12.48.64l-.33-4.2a21.14,21.14,0,0,1-5.57.18c-1.93-.33-3.81-1.42-5.29-5.67C267.81,302.21,267.43,296,268,289c.71-9.53,12-10.69,19-7.05S292.28,297.3,292.28,297.3Z" style="fill:#ffa8a7"></path><path d="M292.33,298.4a1.41,1.41,0,0,0,.44-.41,23.88,23.88,0,0,1,1.92-2.73c.71-.76.16-1.86.07-2.71a30.55,30.55,0,0,1,.21-3.69,13.88,13.88,0,0,0-1.46-7.09c-1.75-3.12-5.16-5-8.64-5.81a17,17,0,0,0-10.42.72,12.7,12.7,0,0,0-7.11,7.45,5.28,5.28,0,0,0,.82,4.16,5,5,0,0,0,3.32,2.14,8,8,0,0,0,5.16-1.08,5,5,0,0,1-.89,2.45,5.61,5.61,0,0,0,4.2-1.53,12.87,12.87,0,0,0,2.67-3.72,8.46,8.46,0,0,0,3.54,3c.67.31,1.48.36,2.13.68s.6,1.07.58,1.65a12.92,12.92,0,0,0,.6,4.36,4.2,4.2,0,0,0,.84,1.64A1.64,1.64,0,0,0,292.33,298.4Z" style="fill:#263238"></path><path d="M280.52,313s6.18-1.77,8.28-3.11a7.28,7.28,0,0,0,2.8-3.25,10.07,10.07,0,0,1-1.44,3.68c-1.44,2.18-9.5,4.35-9.5,4.35Z" style="fill:#f28f8f"></path><path d="M280.61,296.3a1.27,1.27,0,1,0,1.15-1.41A1.3,1.3,0,0,0,280.61,296.3Z" style="fill:#263238"></path><path d="M281,292.49l2.93.94a1.61,1.61,0,0,0-1-2A1.51,1.51,0,0,0,281,292.49Z" style="fill:#263238"></path><path d="M283.11,303.52l-4.91,2.3a2.66,2.66,0,0,0,3.57,1.4A2.83,2.83,0,0,0,283.11,303.52Z" style="fill:#b16668"></path><path d="M283.13,304.7a2.28,2.28,0,0,0-2.24,2.75,2.4,2.4,0,0,0,.88-.23,2.77,2.77,0,0,0,1.57-2.5Z" style="fill:#f28f8f"></path><path d="M269.2,294.18l2.84-1.27a1.49,1.49,0,0,0-2-.82A1.63,1.63,0,0,0,269.2,294.18Z" style="fill:#263238"></path><path d="M270.38,297.17a1.27,1.27,0,1,0,1.16-1.42A1.29,1.29,0,0,0,270.38,297.17Z" style="fill:#263238"></path><polygon points="276.91 295.24 277.53 302.77 273.57 302.66 276.91 295.24" style="fill:#f28f8f"></polygon><g id="freepik--cap--inject-2"><path d="M265.69,288.87l.11,0c6.21-2.08,14.08-1.59,20.76.91l.65.25h0a30.62,30.62,0,0,1,8.52,4.44,3.27,3.27,0,0,1,2.76-.15c.05-.38.19-2.36.2-2.67.34-8.77-1.69-14.51-15.4-16.89-9.54-1.65-16.21,3.32-17.24,9.24C265.83,285.24,265.86,287.54,265.69,288.87Z" style="fill:#FF725E"></path><path d="M265.69,288.87l.11,0c6.21-2.08,14.08-1.59,20.76.91l.65.25h0a30.62,30.62,0,0,1,8.52,4.44,3.27,3.27,0,0,1,2.76-.15c.05-.38.19-2.36.2-2.67.34-8.77-1.69-14.51-15.4-16.89-9.54-1.65-16.21,3.32-17.24,9.24C265.83,285.24,265.86,287.54,265.69,288.87Z" style="opacity:0.30000000000000004"></path><path d="M287.26,288.75a17.82,17.82,0,0,0-7.42-5.86c-3.35-1.55-10-1.26-13-1-5.23.38-6.42,1.57-6.44,2.34,0,.19,0,1,0,1.23a.75.75,0,0,0,.14.49c.85,1.15,5.2,3,5.2,3,6.44-2.19,14.67-1.6,21.52,1.14Z" style="fill:#FF725E"></path><path d="M287.26,288.75a17.82,17.82,0,0,0-7.42-5.86c-3.35-1.55-10-1.26-13-1-5.23.38-6.42,1.57-6.44,2.34,0,.19,0,1,0,1.23a.75.75,0,0,0,.14.49c.85,1.15,5.2,3,5.2,3,6.44-2.19,14.67-1.6,21.52,1.14Z" style="opacity:0.15"></path><path d="M287.21,290c-6.85-2.74-15.08-3.33-21.52-1.14,0,0-4.35-1.81-5.2-3-.46-.63-.18-2.33,6.29-2.81,3-.22,9.66-.51,13,1A17.63,17.63,0,0,1,287.21,290Z" style="fill:#FF725E"></path><path d="M287.21,290c-6.85-2.74-15.08-3.33-21.52-1.14,0,0-4.35-1.81-5.2-3-.46-.63-.18-2.33,6.29-2.81,3-.22,9.66-.51,13,1A17.63,17.63,0,0,1,287.21,290Z" style="opacity:0.5"></path></g><path d="M329.91,355.91c.62-2.45-3.76-10.61-8.6-19.94-8.42-16.2-12.53-19-19.61-18.56l2.2,18.51L316,356.45c-.34,1.72-2.61,12.43-5.67,18.19a4.74,4.74,0,0,1-2.54,2.18c-2.91,1.07-4.29,2.51-6.64,4.14-1.85,1.27-3.22,1.4-3.12,2a2.54,2.54,0,0,0,3,1.79,17.86,17.86,0,0,0,4.06-1.22,25.16,25.16,0,0,1-5.06,5.44c-4.52,3.68-6.88,6.57.39,8.14,4.55,1,10.47-1.77,16-11.11,1.59-2.69,4.18-6.94,5.83-10.55C326.12,366.89,328.1,363.08,329.91,355.91Z" style="fill:#ffa8a7"></path><path d="M299.45,316.7s-2.79,8.76,3.78,19.56c3.91,6.43,9.73,16.33,9.73,16.33s11.1-2.19,13-7.93a172.32,172.32,0,0,0-10-19.07C310.89,317.66,309,315.87,299.45,316.7Z" style="fill:#ebebeb"></path></g></g></g></svg>